<?xml version="1.0" encoding="UTF-8" ?>
<!DOCTYPE svg PUBLIC "-//W3C//DTD SVG 1.1//EN" "http://www.w3.org/Graphics/SVG/1.1/DTD/svg11.dtd">
<svg width="901pt" height="1096pt" viewBox="0 0 901 1096" version="1.1" xmlns="http://www.w3.org/2000/svg">
<g id="#0080c6ff">
<path fill="#0080c6" opacity="1.00" d=" M 697.53 94.86 C 697.27 93.84 698.21 91.06 699.56 92.44 C 704.60 97.02 709.64 101.65 714.46 106.47 C 713.88 110.96 713.76 115.48 713.92 120.01 C 713.91 147.01 713.92 174.01 713.91 201.02 C 714.02 207.11 713.57 213.24 714.40 219.31 L 714.45 219.75 C 708.93 230.22 704.14 241.05 698.66 251.53 C 697.93 247.39 697.93 243.18 698.05 238.99 C 698.11 194.99 698.02 150.98 698.08 106.97 C 698.19 102.92 698.14 98.87 697.53 94.86 Z" />
</g>
<g id="#008ed3ff">
<path fill="#008ed3" opacity="1.00" d=" M 697.47 94.31 L 697.53 94.86 C 698.14 98.87 698.19 102.92 698.08 106.97 C 698.02 150.98 698.11 194.99 698.05 238.99 C 697.93 243.18 697.93 247.39 698.66 251.53 C 694.95 259.64 690.63 267.46 686.33 275.26 C 685.65 266.52 686.06 257.76 685.98 249.01 C 686.12 208.35 685.80 167.69 686.08 127.03 C 686.09 124.45 685.74 121.90 685.25 119.38 C 689.16 110.95 693.35 102.64 697.47 94.31 Z" />
</g>
<g id="#0070b9ff">
<path fill="#0070b9" opacity="1.00" d=" M 714.46 106.47 C 720.05 111.45 724.67 117.55 728.18 124.15 L 728.24 125.14 C 727.68 128.07 727.54 131.05 727.63 134.03 C 727.94 153.84 727.24 173.68 728.01 193.48 C 723.71 202.19 719.26 210.89 714.40 219.31 C 713.57 213.24 714.02 207.11 713.91 201.02 C 713.92 174.01 713.91 147.01 713.92 120.01 C 713.76 115.48 713.88 110.96 714.46 106.47 Z" />
</g>
<g id="#009de0ff">
<path fill="#009de0" opacity="1.00" d=" M 685.25 119.38 C 685.74 121.90 686.09 124.45 686.08 127.03 C 685.80 167.69 686.12 208.35 685.98 249.01 C 686.06 257.76 685.65 266.52 686.33 275.26 C 681.63 284.58 676.86 293.91 671.67 302.97 L 671.35 302.85 C 670.81 298.57 670.82 294.25 670.89 289.95 C 670.88 248.31 670.90 206.67 670.88 165.03 C 670.85 160.12 671.36 155.13 670.18 150.30 C 675.04 139.92 680.13 129.64 685.25 119.38 Z" />
</g>
<g id="#1f63afff">
<path fill="#1f63af" opacity="1.00" d=" M 728.24 125.14 L 728.60 124.96 C 736.37 139.15 739.74 156.04 736.89 172.05 C 735.60 179.77 732.00 186.84 728.01 193.48 C 727.24 173.68 727.94 153.84 727.63 134.03 C 727.54 131.05 727.68 128.07 728.24 125.14 Z" />
<path fill="#1f63af" opacity="1.00" d=" M 643.32 655.30 C 647.20 648.28 649.74 640.61 653.76 633.65 C 661.93 646.45 666.11 661.82 665.47 677.00 C 665.11 685.01 663.06 692.98 659.22 700.04 C 627.66 759.60 596.65 819.45 565.10 879.01 C 558.40 891.45 552.20 904.17 545.16 916.41 C 545.95 911.30 547.14 906.22 547.06 901.03 C 547.03 889.76 543.63 878.79 539.01 868.61 C 542.63 862.16 545.87 855.51 548.65 848.66 C 553.99 837.73 559.59 826.92 565.00 816.02 C 572.42 798.54 582.25 782.18 589.64 764.68 C 596.23 750.94 603.70 737.61 609.73 723.60 C 616.36 709.68 623.91 696.20 629.98 682.02 C 634.34 673.07 638.98 664.26 643.32 655.30 Z" />
</g>
<g id="#00b3eeff">
<path fill="#00b3ee" opacity="1.00" d=" M 670.18 150.30 C 671.36 155.13 670.85 160.12 670.88 165.03 C 670.90 206.67 670.88 248.31 670.89 289.95 C 670.82 294.25 670.81 298.57 671.35 302.85 L 671.28 303.78 C 663.51 319.33 655.12 334.58 647.12 350.02 C 641.91 359.68 637.06 369.55 631.65 379.10 L 631.34 378.92 C 630.81 375.30 630.79 371.63 630.87 367.98 C 630.99 337.67 630.90 307.36 630.90 277.04 C 630.71 261.90 631.29 246.74 630.60 231.62 C 633.63 224.14 637.60 217.10 641.02 209.80 C 650.79 189.99 660.30 170.05 670.18 150.30 Z" />
</g>
<g id="#2d9bd6ff">
<path fill="#2d9bd6" opacity="1.00" d=" M 355.89 194.67 C 366.60 191.71 377.84 190.56 388.91 191.61 C 472.95 197.65 556.98 203.84 641.02 209.80 C 637.60 217.10 633.63 224.14 630.60 231.62 C 627.66 237.90 624.25 243.97 621.71 250.44 C 620.32 253.12 618.86 255.77 617.71 258.57 C 614.56 264.84 611.16 271.00 608.31 277.42 C 604.34 285.46 600.09 293.36 596.42 301.54 C 592.96 308.64 589.23 315.61 586.02 322.83 C 589.47 326.09 593.18 329.07 596.43 332.54 C 600.81 337.89 604.99 343.45 608.40 349.48 C 612.17 356.44 615.32 363.74 617.59 371.32 C 618.22 374.71 618.81 378.10 619.31 381.51 C 619.00 385.83 619.12 390.15 619.37 394.47 C 618.79 397.57 618.35 400.69 618.02 403.82 C 611.03 413.66 600.71 420.75 590.03 426.12 C 573.05 434.42 553.74 437.83 534.96 435.57 C 504.32 433.45 473.68 431.26 443.04 429.15 C 441.28 428.96 439.46 429.09 437.80 428.48 C 436.97 427.68 436.17 426.88 435.37 426.08 C 426.15 416.79 416.37 408.09 407.22 398.74 C 402.45 394.24 397.98 389.43 393.05 385.10 C 388.32 380.76 383.93 376.06 379.22 371.70 C 374.62 366.99 370.01 362.30 365.14 357.88 C 360.03 352.51 354.63 347.45 349.24 342.38 C 344.79 337.43 339.91 332.94 335.04 328.41 C 328.49 321.45 321.11 315.24 315.40 307.52 C 309.51 299.64 305.05 290.79 301.46 281.67 C 296.75 268.19 294.12 252.26 301.18 239.14 C 304.77 232.56 307.80 225.54 312.95 219.97 C 324.20 207.36 339.74 199.13 355.89 194.67 Z" />
</g>
<g id="#16c0edff">
<path fill="#16c0ed" opacity="1.00" d=" M 621.71 250.44 C 624.25 243.97 627.66 237.90 630.60 231.62 C 631.29 246.74 630.71 261.90 630.90 277.04 C 630.90 307.36 630.99 337.67 630.87 367.98 C 630.79 371.63 630.81 375.30 631.34 378.92 L 631.29 379.88 C 628.53 385.40 625.69 390.90 622.61 396.25 C 621.86 388.21 622.27 380.12 622.21 372.05 C 622.21 340.02 622.22 307.98 622.19 275.95 C 622.07 267.45 622.75 258.91 621.71 250.44 Z" />
</g>
<g id="#8ed6ecff">
<path fill="#8ed6ec" opacity="1.00" d=" M 299.14 241.93 C 298.85 240.44 299.96 239.55 301.18 239.14 C 294.12 252.26 296.75 268.19 301.46 281.67 C 298.35 287.01 295.55 292.53 293.23 298.26 C 286.46 312.99 278.37 327.09 272.03 342.01 C 266.72 352.67 261.34 363.30 256.02 373.95 C 248.61 391.47 238.77 407.83 231.29 425.31 C 224.64 439.26 217.13 452.80 211.01 466.99 C 205.51 478.13 199.81 489.16 194.39 500.34 C 191.88 506.20 189.35 512.07 185.97 517.49 C 178.99 502.73 176.23 485.52 180.36 469.55 C 181.93 463.05 185.55 457.37 188.54 451.47 C 220.95 389.97 253.34 328.45 285.75 266.94 C 290.27 258.64 294.35 250.08 299.14 241.93 Z" />
</g>
<g id="#2bc4edff">
<path fill="#2bc4ed" opacity="1.00" d=" M 617.71 258.57 C 618.86 255.77 620.32 253.12 621.71 250.44 C 622.75 258.91 622.07 267.45 622.19 275.95 C 622.22 307.98 622.21 340.02 622.21 372.05 C 622.27 380.12 621.86 388.21 622.61 396.25 C 621.59 399.05 619.83 401.50 618.02 403.82 C 618.35 400.69 618.79 397.57 619.37 394.47 C 620.43 390.21 620.48 385.76 619.31 381.51 C 618.81 378.10 618.22 374.71 617.59 371.32 C 618.07 367.21 618.03 363.07 617.88 358.93 C 617.90 330.60 617.91 302.27 617.86 273.94 C 617.95 268.81 618.06 263.68 617.71 258.57 Z" />
</g>
<g id="#49c8edff">
<path fill="#49c8ed" opacity="1.00" d=" M 608.31 277.42 C 611.16 271.00 614.56 264.84 617.71 258.57 C 618.06 263.68 617.95 268.81 617.86 273.94 C 617.91 302.27 617.90 330.60 617.88 358.93 C 618.03 363.07 618.07 367.21 617.59 371.32 C 615.32 363.74 612.17 356.44 608.40 349.48 C 609.51 341.06 608.64 332.53 608.93 324.06 C 609.20 313.05 608.69 302.03 608.94 291.02 C 609.03 286.48 609.46 281.87 608.31 277.42 Z" />
</g>
<g id="#6cceecff">
<path fill="#6cceec" opacity="1.00" d=" M 608.31 277.42 C 609.46 281.87 609.03 286.48 608.94 291.02 C 608.69 302.03 609.20 313.05 608.93 324.06 C 608.64 332.53 609.51 341.06 608.40 349.48 C 604.99 343.45 600.81 337.89 596.43 332.54 C 597.78 327.43 597.11 322.12 597.18 316.91 C 597.06 311.78 597.76 306.56 596.42 301.54 C 600.09 293.36 604.34 285.46 608.31 277.42 Z" />
</g>
<g id="#7cd2ecff">
<path fill="#7cd2ec" opacity="1.00" d=" M 301.46 281.67 C 305.05 290.79 309.51 299.64 315.40 307.52 C 307.80 322.32 300.17 337.14 293.37 352.33 C 287.98 363.24 282.45 374.07 277.03 384.96 C 271.05 398.96 263.67 412.30 257.03 425.99 C 251.02 439.95 243.68 453.28 237.07 466.96 C 230.65 481.85 222.65 495.99 215.80 510.67 C 212.82 518.13 208.78 525.09 205.40 532.37 C 204.34 534.69 202.93 536.83 201.29 538.79 C 194.79 532.85 189.83 525.37 185.97 517.49 C 189.35 512.07 191.88 506.20 194.39 500.34 C 199.81 489.16 205.51 478.13 211.01 466.99 C 217.13 452.80 224.64 439.26 231.29 425.31 C 238.77 407.83 248.61 391.47 256.02 373.95 C 261.34 363.30 266.72 352.67 272.03 342.01 C 278.37 327.09 286.46 312.99 293.23 298.26 C 295.55 292.53 298.35 287.01 301.46 281.67 Z" />
</g>
<g id="#88d5ecff">
<path fill="#88d5ec" opacity="1.00" d=" M 596.42 301.54 C 597.76 306.56 597.06 311.78 597.18 316.91 C 597.11 322.12 597.78 327.43 596.43 332.54 C 593.18 329.07 589.47 326.09 586.02 322.83 C 589.23 315.61 592.96 308.64 596.42 301.54 Z" />
</g>
<g id="#69cdecff">
<path fill="#69cdec" opacity="1.00" d=" M 315.40 307.52 C 321.11 315.24 328.49 321.45 335.04 328.41 C 329.95 337.68 325.44 347.25 320.66 356.68 C 313.35 373.94 303.65 390.07 296.30 407.31 C 289.62 421.24 282.04 434.75 276.02 448.99 C 269.36 462.67 262.00 476.01 255.99 490.00 C 249.35 503.67 242.00 517.02 235.97 530.99 C 232.38 538.34 228.61 545.60 225.09 552.99 C 224.14 555.04 222.85 556.90 221.37 558.60 C 214.59 552.09 208.05 545.35 201.19 538.92 L 201.29 538.79 C 202.93 536.83 204.34 534.69 205.40 532.37 C 208.78 525.09 212.82 518.13 215.80 510.67 C 222.65 495.99 230.65 481.85 237.07 466.96 C 243.68 453.28 251.02 439.95 257.03 425.99 C 263.67 412.30 271.05 398.96 277.03 384.96 C 282.45 374.07 287.98 363.24 293.37 352.33 C 300.17 337.14 307.80 322.32 315.40 307.52 Z" />
</g>
<g id="#50c9edff">
<path fill="#50c9ed" opacity="1.00" d=" M 320.66 356.68 C 325.44 347.25 329.95 337.68 335.04 328.41 C 339.91 332.94 344.79 337.43 349.24 342.38 C 344.27 355.48 336.47 367.34 331.22 380.35 C 325.70 391.99 319.70 403.41 314.01 414.97 C 306.97 431.56 297.74 447.11 290.61 463.66 C 285.21 474.56 279.80 485.46 274.31 496.33 C 267.93 511.20 260.09 525.39 253.04 539.96 C 248.06 551.39 242.41 562.54 236.47 573.50 C 231.28 568.71 226.65 563.32 221.25 558.75 L 221.37 558.60 C 222.85 556.90 224.14 555.04 225.09 552.99 C 228.61 545.60 232.38 538.34 235.97 530.99 C 242.00 517.02 249.35 503.67 255.99 490.00 C 262.00 476.01 269.36 462.67 276.02 448.99 C 282.04 434.75 289.62 421.24 296.30 407.31 C 303.65 390.07 313.35 373.94 320.66 356.68 Z" />
</g>
<g id="#3bc5edff">
<path fill="#3bc5ed" opacity="1.00" d=" M 349.24 342.38 C 354.63 347.45 360.03 352.51 365.14 357.88 C 357.67 371.80 351.47 386.34 344.30 400.41 C 341.35 406.41 338.21 412.32 335.31 418.34 C 328.97 433.00 321.32 447.04 314.31 461.38 C 308.22 475.29 301.00 488.67 294.31 502.29 C 288.30 516.25 281.02 529.62 274.33 543.26 C 267.58 558.66 259.67 573.53 252.10 588.54 C 246.52 583.93 241.86 578.33 236.47 573.50 C 242.41 562.54 248.06 551.39 253.04 539.96 C 260.09 525.39 267.93 511.20 274.31 496.33 C 279.80 485.46 285.21 474.56 290.61 463.66 C 297.74 447.11 306.97 431.56 314.01 414.97 C 319.70 403.41 325.70 391.99 331.22 380.35 C 336.47 367.34 344.27 355.48 349.24 342.38 Z" />
</g>
<g id="#23c2edff">
<path fill="#23c2ed" opacity="1.00" d=" M 365.14 357.88 C 370.01 362.30 374.62 366.99 379.22 371.70 C 371.62 386.98 363.51 402.04 356.67 417.69 C 350.20 430.90 343.16 443.84 337.30 457.33 C 331.93 468.26 326.37 479.09 321.01 490.02 C 314.91 504.22 307.38 517.76 300.72 531.70 C 294.72 545.40 287.56 558.55 281.01 571.99 C 276.64 582.39 271.31 592.35 266.20 602.40 C 261.20 598.12 256.80 593.22 252.00 588.73 L 252.10 588.54 C 259.67 573.53 267.58 558.66 274.33 543.26 C 281.02 529.62 288.30 516.25 294.31 502.29 C 301.00 488.67 308.22 475.29 314.31 461.38 C 321.32 447.04 328.97 433.00 335.31 418.34 C 338.21 412.32 341.35 406.41 344.30 400.41 C 351.47 386.34 357.67 371.80 365.14 357.88 Z" />
</g>
<g id="#11bfedff">
<path fill="#11bfed" opacity="1.00" d=" M 379.22 371.70 C 383.93 376.06 388.32 380.76 393.05 385.10 C 390.07 390.61 387.29 396.21 384.91 402.01 C 379.56 413.19 373.85 424.19 368.34 435.29 C 362.09 449.70 354.55 463.52 347.70 477.65 C 340.92 493.82 331.75 508.87 324.95 525.02 C 317.65 540.32 309.39 555.17 302.69 570.74 C 298.20 579.56 293.76 588.42 289.35 597.29 C 285.90 603.45 283.83 610.27 280.23 616.36 C 275.57 611.71 270.77 607.22 266.10 602.58 L 266.20 602.40 C 271.31 592.35 276.64 582.39 281.01 571.99 C 287.56 558.55 294.72 545.40 300.72 531.70 C 307.38 517.76 314.91 504.22 321.01 490.02 C 326.37 479.09 331.93 468.26 337.30 457.33 C 343.16 443.84 350.20 430.90 356.67 417.69 C 363.51 402.04 371.62 386.98 379.22 371.70 Z" />
</g>
<g id="#25a0cae1">
<path fill="#25a0ca" opacity="0.88" d=" M 619.31 381.51 C 620.48 385.76 620.43 390.21 619.37 394.47 C 619.12 390.15 619.00 385.83 619.31 381.51 Z" />
</g>
<g id="#00b9eeff">
<path fill="#00b9ee" opacity="1.00" d=" M 393.05 385.10 C 397.98 389.43 402.45 394.24 407.22 398.74 C 416.37 408.09 426.15 416.79 435.37 426.08 C 433.00 434.17 428.64 441.45 425.00 449.00 C 420.52 458.20 415.54 467.16 411.63 476.63 C 406.35 487.61 400.70 498.42 395.30 509.34 C 388.64 524.91 380.30 539.69 373.09 555.01 C 366.10 571.05 357.20 586.20 350.33 602.30 C 343.46 616.42 335.94 630.23 329.70 644.65 C 327.51 649.06 325.25 653.44 322.93 657.79 C 308.54 644.14 294.44 630.19 280.23 616.36 C 283.83 610.27 285.90 603.45 289.35 597.29 C 293.76 588.42 298.20 579.56 302.69 570.74 C 309.39 555.17 317.65 540.32 324.95 525.02 C 331.75 508.87 340.92 493.82 347.70 477.65 C 354.55 463.52 362.09 449.70 368.34 435.29 C 373.85 424.19 379.56 413.19 384.91 402.01 C 387.29 396.21 390.07 390.61 393.05 385.10 Z" />
</g>
<g id="#00b1efff">
<path fill="#00b1ef" opacity="1.00" d=" M 435.37 426.08 C 436.17 426.88 436.97 427.68 437.80 428.48 C 452.62 443.05 468.09 456.94 483.22 471.18 C 477.93 479.68 474.71 489.20 470.04 498.01 C 465.68 506.66 461.29 515.31 457.00 523.99 C 451.11 538.02 443.54 551.25 437.04 564.99 C 430.55 579.83 422.74 594.04 415.72 608.62 C 410.01 621.92 403.01 634.62 396.68 647.63 C 388.51 666.11 378.58 683.77 370.41 702.25 C 354.58 687.43 338.50 672.87 322.93 657.79 C 325.25 653.44 327.51 649.06 329.70 644.65 C 335.94 630.23 343.46 616.42 350.33 602.30 C 357.20 586.20 366.10 571.05 373.09 555.01 C 380.30 539.69 388.64 524.91 395.30 509.34 C 400.70 498.42 406.35 487.61 411.63 476.63 C 415.54 467.16 420.52 458.20 425.00 449.00 C 428.64 441.45 433.00 434.17 435.37 426.08 Z" />
</g>
<g id="#00a8e9ff">
<path fill="#00a8e9" opacity="1.00" d=" M 470.04 498.01 C 474.71 489.20 477.93 479.68 483.22 471.18 C 490.63 478.09 498.08 484.98 505.45 491.94 C 503.77 497.44 500.54 502.28 498.52 507.65 C 493.85 517.78 488.56 527.62 483.67 537.65 C 480.44 543.61 478.16 550.01 475.03 556.01 C 469.99 566.00 464.96 576.01 459.99 586.04 C 454.07 599.76 446.92 612.90 440.32 626.30 C 433.98 641.21 426.00 655.35 419.08 670.00 C 414.16 681.50 408.15 692.47 402.62 703.68 C 399.09 710.09 396.90 717.15 393.07 723.41 C 385.56 716.31 377.91 709.35 370.41 702.25 C 378.58 683.77 388.51 666.11 396.68 647.63 C 403.01 634.62 410.01 621.92 415.72 608.62 C 422.74 594.04 430.55 579.83 437.04 564.99 C 443.54 551.25 451.11 538.02 457.00 523.99 C 461.29 515.31 465.68 506.66 470.04 498.01 Z" />
</g>
<g id="#009fe1ff">
<path fill="#009fe1" opacity="1.00" d=" M 505.45 491.94 C 512.88 498.71 520.14 505.65 527.54 512.46 C 522.52 521.33 518.32 530.63 513.64 539.69 C 510.35 545.85 507.94 552.43 504.72 558.62 C 499.58 568.83 494.49 579.06 489.38 589.28 C 482.34 605.88 473.05 621.41 466.03 638.01 C 460.91 648.22 455.79 658.43 450.67 668.65 C 443.96 684.21 435.59 698.98 428.52 714.36 C 424.40 724.46 418.39 733.69 414.61 743.93 C 409.71 739.34 404.95 734.60 400.05 730.02 C 397.79 727.74 395.45 725.56 393.07 723.41 C 396.90 717.15 399.09 710.09 402.62 703.68 C 408.15 692.47 414.16 681.50 419.08 670.00 C 426.00 655.35 433.98 641.21 440.32 626.30 C 446.92 612.90 454.07 599.76 459.99 586.04 C 464.96 576.01 469.99 566.00 475.03 556.01 C 478.16 550.01 480.44 543.61 483.67 537.65 C 488.56 527.62 493.85 517.78 498.52 507.65 C 500.54 502.28 503.77 497.44 505.45 491.94 Z" />
</g>
<g id="#0094d9ff">
<path fill="#0094d9" opacity="1.00" d=" M 527.54 512.46 C 537.22 521.47 546.88 530.50 556.57 539.50 C 551.52 547.57 548.48 556.64 543.99 565.00 C 539.57 573.90 535.09 582.78 530.68 591.68 C 524.67 605.65 517.30 618.98 510.67 632.66 C 503.23 650.13 493.43 666.49 486.01 683.98 C 479.17 697.84 471.85 711.48 465.67 725.66 C 458.19 740.65 450.52 755.54 443.71 770.84 C 435.31 762.89 426.80 755.06 418.38 747.13 C 417.12 746.06 415.85 745.00 414.61 743.93 C 418.39 733.69 424.40 724.46 428.52 714.36 C 435.59 698.98 443.96 684.21 450.67 668.65 C 455.79 658.43 460.91 648.22 466.03 638.01 C 473.05 621.41 482.34 605.88 489.38 589.28 C 494.49 579.06 499.58 568.83 504.72 558.62 C 507.94 552.43 510.35 545.85 513.64 539.69 C 518.32 530.63 522.52 521.33 527.54 512.46 Z" />
</g>
<g id="#008acfff">
<path fill="#008acf" opacity="1.00" d=" M 556.57 539.50 C 565.19 547.51 573.77 555.56 582.39 563.57 C 576.35 577.21 569.09 590.27 562.68 603.75 C 556.74 617.47 549.47 630.56 542.99 644.03 C 536.99 658.02 529.64 671.38 522.96 685.05 C 516.48 700.15 508.47 714.54 501.38 729.36 C 494.42 745.70 485.25 761.00 478.30 777.35 C 475.45 783.23 472.31 788.98 469.73 794.99 C 466.04 791.53 462.45 787.95 458.56 784.72 C 453.47 780.24 448.86 775.25 443.71 770.84 C 450.52 755.54 458.19 740.65 465.67 725.66 C 471.85 711.48 479.17 697.84 486.01 683.98 C 493.43 666.49 503.23 650.13 510.67 632.66 C 517.30 618.98 524.67 605.65 530.68 591.68 C 535.09 582.78 539.57 573.90 543.99 565.00 C 548.48 556.64 551.52 547.57 556.57 539.50 Z" />
</g>
<g id="#007ec4ff">
<path fill="#007ec4" opacity="1.00" d=" M 582.39 563.57 C 593.54 573.90 604.62 584.31 615.77 594.65 C 609.76 606.41 603.86 618.23 597.95 630.04 C 592.01 644.02 584.64 657.32 577.99 670.97 C 571.91 685.19 564.41 698.74 557.68 712.66 C 551.70 726.66 544.24 739.96 537.69 753.68 C 531.57 767.87 524.02 781.37 517.40 795.32 C 513.09 805.60 507.74 815.40 502.69 825.33 C 491.47 815.48 480.87 804.94 469.73 794.99 C 472.31 788.98 475.45 783.23 478.30 777.35 C 485.25 761.00 494.42 745.70 501.38 729.36 C 508.47 714.54 516.48 700.15 522.96 685.05 C 529.64 671.38 536.99 658.02 542.99 644.03 C 549.47 630.56 556.74 617.47 562.68 603.75 C 569.09 590.27 576.35 577.21 582.39 563.57 Z" />
</g>
<g id="#0072bbff">
<path fill="#0072bb" opacity="1.00" d=" M 615.77 594.65 C 623.86 602.19 631.96 609.72 640.03 617.27 C 637.39 621.76 635.42 626.58 633.32 631.34 C 627.48 643.40 621.22 655.27 615.36 667.33 C 610.55 679.11 604.17 690.15 598.70 701.62 C 595.27 708.03 592.79 714.90 589.41 721.34 C 584.92 730.20 580.48 739.08 576.04 747.97 C 570.13 761.76 562.82 774.89 556.32 788.41 C 550.29 802.35 542.99 815.70 536.36 829.36 C 533.10 835.74 531.16 842.92 526.46 848.47 C 519.33 839.98 510.41 833.26 502.69 825.33 C 507.74 815.40 513.09 805.60 517.40 795.32 C 524.02 781.37 531.57 767.87 537.69 753.68 C 544.24 739.96 551.70 726.66 557.68 712.66 C 564.41 698.74 571.91 685.19 577.99 670.97 C 584.64 657.32 592.01 644.02 597.95 630.04 C 603.86 618.23 609.76 606.41 615.77 594.65 Z" />
</g>
<g id="#0d6ab5ff">
<path fill="#0d6ab5" opacity="1.00" d=" M 633.32 631.34 C 635.42 626.58 637.39 621.76 640.03 617.27 C 645.36 622.00 649.96 627.48 653.88 633.42 L 653.76 633.65 C 649.74 640.61 647.20 648.28 643.32 655.30 C 638.98 664.26 634.34 673.07 629.98 682.02 C 623.91 696.20 616.36 709.68 609.73 723.60 C 603.70 737.61 596.23 750.94 589.64 764.68 C 582.25 782.18 572.42 798.54 565.00 816.02 C 559.59 826.92 553.99 837.73 548.65 848.66 C 545.87 855.51 542.63 862.16 539.01 868.61 C 535.46 861.52 531.39 854.69 526.46 848.47 C 531.16 842.92 533.10 835.74 536.36 829.36 C 542.99 815.70 550.29 802.35 556.32 788.41 C 562.82 774.89 570.13 761.76 576.04 747.97 C 580.48 739.08 584.92 730.20 589.41 721.34 C 592.79 714.90 595.27 708.03 598.70 701.62 C 604.17 690.15 610.55 679.11 615.36 667.33 C 621.22 655.27 627.48 643.40 633.32 631.34 Z" />
</g>
<g id="#78c0e4ff">
<path fill="#78c0e4" opacity="1.00" d=" M 281.11 724.11 C 291.36 722.29 301.78 722.63 312.10 723.60 C 306.57 735.73 299.76 747.24 294.68 759.57 C 287.98 773.55 280.40 787.11 274.33 801.39 C 267.51 815.25 260.15 828.86 253.99 843.03 C 247.48 856.47 240.22 869.55 234.36 883.29 C 229.64 892.87 224.78 902.37 220.03 911.93 C 216.90 917.97 214.56 924.39 211.32 930.38 C 207.83 937.59 204.00 944.64 200.74 951.96 C 191.38 951.38 182.01 950.86 172.64 950.25 C 175.36 943.65 178.96 937.46 181.98 930.99 C 188.12 917.08 195.28 903.65 202.04 890.04 C 208.37 875.11 216.36 860.95 223.35 846.32 C 229.29 832.31 236.81 819.03 243.37 805.30 C 249.47 790.84 257.35 777.21 263.92 762.96 C 269.26 750.38 276.27 738.60 281.75 726.09 C 281.60 725.63 281.31 724.71 281.16 724.24 L 281.11 724.11 Z" />
</g>
<g id="#6ab6e0ff">
<path fill="#6ab6e0" opacity="1.00" d=" M 312.10 723.60 C 322.74 724.31 333.38 725.12 344.03 725.82 C 339.51 735.35 334.39 744.59 330.33 754.34 C 324.73 765.71 318.94 776.99 313.35 788.37 C 308.63 799.63 302.66 810.31 297.38 821.31 C 293.61 828.13 291.02 835.51 287.31 842.35 C 282.92 851.24 278.43 860.09 274.01 868.96 C 267.76 883.65 259.94 897.61 253.06 912.01 C 248.13 923.74 241.87 934.85 236.38 946.32 C 235.17 948.86 233.82 951.36 232.02 953.55 C 221.61 953.64 211.16 952.39 200.74 951.96 C 204.00 944.64 207.83 937.59 211.32 930.38 C 214.56 924.39 216.90 917.97 220.03 911.93 C 224.78 902.37 229.64 892.87 234.36 883.29 C 240.22 869.55 247.48 856.47 253.99 843.03 C 260.15 828.86 267.51 815.25 274.33 801.39 C 280.40 787.11 287.98 773.55 294.68 759.57 C 299.76 747.24 306.57 735.73 312.10 723.60 Z" />
</g>
<g id="#84c9e7ff">
<path fill="#84c9e7" opacity="1.00" d=" M 258.52 731.02 C 265.79 727.96 273.36 725.52 281.16 724.24 C 281.31 724.71 281.60 725.63 281.75 726.09 C 276.27 738.60 269.26 750.38 263.92 762.96 C 257.35 777.21 249.47 790.84 243.37 805.30 C 236.81 819.03 229.29 832.31 223.35 846.32 C 216.36 860.95 208.37 875.11 202.04 890.04 C 195.28 903.65 188.12 917.08 181.98 930.99 C 178.96 937.46 175.36 943.65 172.64 950.25 C 166.07 949.87 159.50 949.48 152.93 949.06 C 160.36 933.81 168.58 918.93 175.29 903.34 C 181.88 889.90 189.08 876.75 194.97 862.99 C 200.64 851.94 206.02 840.76 211.66 829.70 C 217.85 815.24 225.52 801.49 232.32 787.32 C 239.28 770.99 248.34 755.64 255.40 739.35 C 256.63 736.72 258.24 734.18 258.49 731.22 L 258.52 731.02 Z" />
</g>
<g id="#5aadddff">
<path fill="#5aaddd" opacity="1.00" d=" M 344.03 725.82 C 358.13 726.81 372.23 727.80 386.33 728.79 C 382.65 737.37 378.07 745.54 374.02 753.95 C 368.05 767.97 360.65 781.32 353.98 795.01 C 347.91 809.22 340.39 822.76 333.67 836.68 C 326.34 853.94 316.64 870.09 309.30 887.35 C 303.77 898.73 297.95 909.97 292.37 921.32 C 287.58 933.40 280.53 944.44 275.67 956.49 C 261.01 955.69 246.36 954.58 231.70 953.96 L 232.02 953.55 C 233.82 951.36 235.17 948.86 236.38 946.32 C 241.87 934.85 248.13 923.74 253.06 912.01 C 259.94 897.61 267.76 883.65 274.01 868.96 C 278.43 860.09 282.92 851.24 287.31 842.35 C 291.02 835.51 293.61 828.13 297.38 821.31 C 302.66 810.31 308.63 799.63 313.35 788.37 C 318.94 776.99 324.73 765.71 330.33 754.34 C 334.39 744.59 339.51 735.35 344.03 725.82 Z" />
</g>
<g id="#4ba5daff">
<path fill="#4ba5da" opacity="1.00" d=" M 386.33 728.79 C 390.89 729.25 395.54 729.06 400.05 730.02 C 404.95 734.60 409.71 739.34 414.61 743.93 C 415.85 745.00 417.12 746.06 418.38 747.13 C 416.03 754.15 411.82 760.35 409.26 767.29 C 402.37 781.96 394.39 796.12 388.01 811.03 C 382.69 821.69 377.35 832.35 371.99 843.00 C 366.16 856.76 358.79 869.81 352.37 883.30 C 345.40 899.30 336.89 914.57 329.48 930.36 C 325.41 940.12 320.02 949.26 315.72 958.92 C 302.37 958.09 289.01 957.34 275.67 956.49 C 280.53 944.44 287.58 933.40 292.37 921.32 C 297.95 909.97 303.77 898.73 309.30 887.35 C 316.64 870.09 326.34 853.94 333.67 836.68 C 340.39 822.76 347.91 809.22 353.98 795.01 C 360.65 781.32 368.05 767.97 374.02 753.95 C 378.07 745.54 382.65 737.37 386.33 728.79 Z" />
</g>
<g id="#90d3eaff">
<path fill="#90d3ea" opacity="1.00" d=" M 227.69 753.55 C 235.73 743.57 246.71 736.11 258.49 731.22 C 258.24 734.18 256.63 736.72 255.40 739.35 C 248.34 755.64 239.28 770.99 232.32 787.32 C 225.52 801.49 217.85 815.24 211.66 829.70 C 206.02 840.76 200.64 851.94 194.97 862.99 C 189.08 876.75 181.88 889.90 175.29 903.34 C 168.58 918.93 160.36 933.81 152.93 949.06 C 144.06 948.50 135.18 948.07 126.31 947.41 C 133.73 932.34 141.08 917.22 148.44 902.11 C 171.47 858.39 194.50 814.66 217.53 770.93 C 220.77 765.06 223.41 758.78 227.69 753.55 Z" />
</g>
<g id="#3aa0d8ff">
<path fill="#3aa0d8" opacity="1.00" d=" M 418.38 747.13 C 426.80 755.06 435.31 762.89 443.71 770.84 C 448.86 775.25 453.47 780.24 458.56 784.72 C 456.05 789.87 453.54 795.03 451.32 800.33 C 445.58 811.90 439.74 823.43 434.00 835.00 C 427.80 849.43 420.15 863.18 413.37 877.33 C 406.41 893.68 397.20 908.97 390.32 925.35 C 384.20 937.68 377.96 949.95 371.90 962.31 C 353.17 961.20 334.44 960.05 315.72 958.92 C 320.02 949.26 325.41 940.12 329.48 930.36 C 336.89 914.57 345.40 899.30 352.37 883.30 C 358.79 869.81 366.16 856.76 371.99 843.00 C 377.35 832.35 382.69 821.69 388.01 811.03 C 394.39 796.12 402.37 781.96 409.26 767.29 C 411.82 760.35 416.03 754.15 418.38 747.13 Z" />
</g>
<g id="#2e9cd6ff">
<path fill="#2e9cd6" opacity="1.00" d=" M 458.56 784.72 C 462.45 787.95 466.04 791.53 469.73 794.99 C 480.87 804.94 491.47 815.48 502.69 825.33 C 510.41 833.26 519.33 839.98 526.46 848.47 C 531.39 854.69 535.46 861.52 539.01 868.61 C 543.63 878.79 547.03 889.76 547.06 901.03 C 547.14 906.22 545.95 911.30 545.16 916.41 C 543.40 920.39 541.02 924.08 539.12 928.01 C 533.40 939.45 523.35 948.10 512.45 954.45 C 496.69 963.46 478.43 968.38 460.24 967.68 C 430.79 965.87 401.34 964.14 371.90 962.31 C 377.96 949.95 384.20 937.68 390.32 925.35 C 397.20 908.97 406.41 893.68 413.37 877.33 C 420.15 863.18 427.80 849.43 434.00 835.00 C 439.74 823.43 445.58 811.90 451.32 800.33 C 453.54 795.03 456.05 789.87 458.56 784.72 Z" />
</g>
</svg>
