<svg id="svg" version="1.1" xmlns="http://www.w3.org/2000/svg" xmlns:xlink="http://www.w3.org/1999/xlink" width="400" height="486.57047724750277" viewBox="0, 0, 400,486.57047724750277"><g id="svgg"><path id="path0" d="M307.876 45.700 C 305.631 50.301,292.525 77.242,287.541 87.500 C 284.987 92.758,284.688 93.200,283.686 93.196 C 283.089 93.195,280.170 93.020,277.200 92.808 C 274.230 92.596,266.490 92.060,260.000 91.616 C 246.108 90.667,243.968 90.505,238.400 89.985 C 236.090 89.769,226.190 89.055,216.400 88.398 C 198.545 87.199,186.406 86.307,178.200 85.591 C 156.514 83.698,142.286 90.034,134.600 105.005 L 132.200 109.680 132.208 114.540 C 132.228 125.747,136.215 133.104,149.599 146.630 C 153.828 150.903,157.093 154.400,156.856 154.400 C 156.619 154.400,156.520 154.647,156.636 154.948 C 156.751 155.250,156.580 155.599,156.254 155.724 C 155.917 155.853,155.744 156.264,155.852 156.678 C 155.957 157.077,155.713 157.763,155.311 158.202 C 154.909 158.641,154.322 159.810,154.007 160.800 C 153.691 161.790,153.324 162.690,153.190 162.800 C 153.057 162.910,152.249 164.530,151.396 166.400 C 150.543 168.270,149.610 170.084,149.323 170.431 C 149.035 170.779,148.800 171.246,148.800 171.470 C 148.800 171.693,148.440 172.202,148.000 172.600 C 147.560 172.998,147.200 173.568,147.200 173.866 C 147.200 174.513,145.903 177.496,144.533 180.000 C 143.992 180.990,143.000 182.970,142.330 184.400 C 141.660 185.830,140.952 187.060,140.756 187.133 C 140.560 187.207,140.400 187.462,140.400 187.702 C 140.400 188.438,135.550 198.533,135.100 198.733 C 134.935 198.807,134.800 199.280,134.800 199.784 C 134.800 200.289,134.542 200.917,134.226 201.179 C 133.910 201.441,133.536 202.181,133.395 202.823 C 133.254 203.465,132.972 204.094,132.769 204.219 C 132.566 204.345,132.400 204.769,132.400 205.162 C 132.400 205.556,132.040 206.293,131.600 206.800 C 131.160 207.307,130.800 207.950,130.800 208.228 C 130.800 208.506,130.608 208.797,130.374 208.875 C 130.140 208.953,129.849 209.759,129.727 210.666 C 129.567 211.860,129.243 212.456,128.553 212.825 C 128.025 213.108,127.596 213.706,127.591 214.168 C 127.586 214.625,127.230 215.450,126.800 216.000 C 126.370 216.550,126.014 217.304,126.009 217.676 C 126.004 218.048,125.820 218.464,125.600 218.600 C 125.380 218.736,125.200 219.287,125.200 219.824 C 125.200 220.361,125.025 220.800,124.812 220.800 C 124.366 220.800,122.400 224.776,122.400 225.678 C 122.400 226.009,121.863 227.072,121.207 228.040 C 120.551 229.008,120.011 230.012,120.007 230.271 C 120.003 230.531,119.775 230.988,119.500 231.287 C 118.637 232.226,118.000 233.557,118.000 234.421 C 118.000 235.443,117.310 236.793,116.364 237.624 C 115.973 237.967,115.532 238.732,115.383 239.324 C 115.235 239.916,114.953 240.400,114.757 240.400 C 114.560 240.400,114.400 240.752,114.400 241.181 C 114.400 242.355,113.597 244.008,112.122 245.867 C 111.395 246.784,110.800 247.972,110.800 248.506 C 110.800 249.556,109.769 251.875,108.924 252.729 C 108.636 253.019,108.400 253.520,108.400 253.841 C 108.400 254.162,108.141 254.524,107.825 254.646 C 107.509 254.767,107.344 255.110,107.458 255.408 C 107.573 255.706,107.898 255.860,108.182 255.752 C 108.537 255.615,108.645 255.841,108.527 256.477 C 108.336 257.507,132.659 281.764,152.211 300.042 C 157.717 305.189,165.689 312.640,169.928 316.600 L 177.635 323.800 175.718 324.008 C 174.663 324.123,173.620 324.102,173.400 323.963 C 173.180 323.823,170.300 323.686,167.000 323.658 C 161.174 323.610,161.032 323.628,162.100 324.297 C 163.312 325.056,163.528 325.899,162.600 326.255 C 162.270 326.382,162.000 326.700,162.000 326.961 C 162.000 327.423,161.579 328.052,159.700 330.394 C 158.586 331.782,158.501 332.467,159.600 331.200 C 160.040 330.693,160.400 330.475,160.400 330.715 C 160.400 330.956,160.220 331.264,160.000 331.400 C 159.780 331.536,159.600 331.975,159.600 332.375 C 159.600 332.775,159.328 333.327,158.996 333.603 C 158.664 333.878,158.281 334.801,158.145 335.652 C 157.898 337.201,157.444 337.640,157.065 336.700 C 156.954 336.425,156.836 336.740,156.803 337.400 C 156.752 338.441,156.698 338.494,156.400 337.800 C 156.072 337.037,156.055 337.041,156.028 337.900 C 156.013 338.395,155.775 338.803,155.500 338.806 C 155.167 338.810,155.200 338.942,155.600 339.200 C 155.979 339.445,156.021 339.590,155.713 339.594 C 155.444 339.597,155.324 339.858,155.445 340.173 C 155.566 340.489,155.200 341.539,154.633 342.508 C 154.065 343.477,153.600 344.550,153.600 344.892 C 153.600 345.234,153.330 345.618,153.000 345.745 C 152.670 345.871,152.379 346.296,152.353 346.687 C 152.327 347.079,152.168 346.860,152.000 346.200 L 151.695 345.000 151.647 346.300 C 151.620 347.044,151.386 347.603,151.100 347.606 C 150.766 347.610,150.798 347.737,151.196 347.989 C 151.722 348.321,151.716 348.499,151.151 349.483 C 150.798 350.097,150.391 351.095,150.247 351.700 C 149.951 352.944,149.350 353.149,149.076 352.100 C 148.975 351.715,148.872 352.081,148.846 352.913 C 148.819 353.803,148.570 354.513,148.241 354.639 C 147.934 354.757,147.561 355.665,147.413 356.656 C 147.264 357.647,146.795 358.805,146.371 359.229 C 145.947 359.653,145.600 360.360,145.600 360.800 C 145.600 361.240,145.452 361.600,145.271 361.600 C 144.850 361.600,143.200 364.884,143.200 365.720 C 143.200 366.639,142.493 366.933,142.277 366.105 C 142.176 365.717,142.072 366.159,142.046 367.086 C 142.012 368.332,141.791 368.883,141.200 369.200 C 140.760 369.435,140.400 369.864,140.400 370.152 C 140.400 370.440,139.950 371.199,139.400 371.838 C 138.399 373.002,138.138 373.641,138.700 373.553 C 139.530 373.422,139.665 373.667,139.113 374.300 C 138.776 374.685,138.284 375.675,138.020 376.500 C 137.755 377.325,137.372 378.000,137.169 378.000 C 136.966 378.000,136.800 378.341,136.800 378.757 C 136.800 379.174,136.530 379.618,136.200 379.745 C 135.870 379.871,135.582 380.386,135.560 380.887 C 135.521 381.776,135.512 381.774,135.200 380.800 C 134.903 379.874,134.877 379.901,134.840 381.172 C 134.786 383.013,133.961 385.200,133.320 385.200 C 132.861 385.200,132.774 385.371,132.808 386.208 C 132.825 386.622,131.792 387.511,131.500 387.334 C 131.335 387.235,131.200 387.433,131.200 387.776 C 131.200 388.119,130.990 388.400,130.733 388.400 C 130.477 388.400,130.382 388.516,130.524 388.657 C 130.665 388.798,131.044 388.695,131.367 388.428 C 131.875 388.006,131.891 388.105,131.489 389.171 C 131.233 389.847,130.749 390.403,130.412 390.406 C 129.928 390.411,129.911 390.482,130.330 390.748 C 130.759 391.021,130.741 391.202,130.230 391.713 C 129.883 392.060,129.600 392.521,129.600 392.738 C 129.600 392.955,129.465 393.209,129.300 393.301 C 129.135 393.393,129.225 393.414,129.500 393.347 C 130.193 393.178,130.131 393.975,129.430 394.244 C 129.116 394.364,128.740 395.169,128.595 396.031 C 128.433 396.991,128.110 397.600,127.765 397.600 C 127.454 397.600,127.200 397.752,127.200 397.939 C 127.200 398.125,126.836 398.697,126.391 399.210 C 125.769 399.927,125.700 400.217,126.091 400.465 C 126.451 400.693,126.365 400.799,125.800 400.825 C 125.360 400.846,125.204 400.947,125.453 401.049 C 126.221 401.365,125.253 404.400,124.385 404.400 C 123.990 404.400,123.563 404.175,123.437 403.900 C 123.311 403.625,123.301 403.784,123.416 404.254 C 123.531 404.724,123.417 405.624,123.163 406.254 C 122.908 406.884,122.553 407.760,122.373 408.200 C 122.194 408.640,121.932 409.585,121.792 410.300 C 121.614 411.207,121.312 411.600,120.795 411.600 C 120.382 411.600,119.930 411.991,119.774 412.481 C 119.620 412.966,119.235 413.622,118.918 413.939 C 118.444 414.413,118.436 414.577,118.870 414.852 C 119.324 415.139,119.118 415.328,118.400 415.282 C 118.290 415.275,118.190 416.007,118.178 416.909 C 118.166 417.810,117.941 418.620,117.678 418.707 C 117.415 418.795,117.200 419.122,117.200 419.433 C 117.200 419.745,117.020 420.000,116.800 420.000 C 116.580 420.000,116.400 419.807,116.400 419.571 C 116.400 419.336,116.130 419.413,115.800 419.743 C 115.027 420.516,115.027 421.600,115.800 421.600 C 116.130 421.600,116.400 421.864,116.400 422.187 C 116.400 422.580,116.168 422.688,115.700 422.513 C 115.097 422.287,115.073 422.340,115.528 422.900 C 116.140 423.653,117.324 423.799,127.800 424.416 C 131.980 424.662,136.030 424.936,136.800 425.026 C 139.850 425.381,144.085 425.659,160.800 426.602 C 183.578 427.887,191.890 428.400,193.600 428.628 C 213.803 431.314,232.421 424.625,238.766 412.400 C 239.508 410.970,240.707 408.810,241.430 407.600 C 242.153 406.390,247.006 397.300,252.213 387.400 C 264.706 363.650,264.840 363.396,277.099 340.000 C 282.921 328.890,288.275 318.720,288.998 317.400 C 294.376 307.577,295.200 305.107,295.200 298.806 C 295.200 286.803,291.701 280.810,276.600 266.950 C 273.960 264.526,265.140 256.346,257.000 248.771 C 248.860 241.196,239.680 232.670,236.600 229.824 C 230.683 224.357,213.205 208.130,202.800 198.444 C 199.390 195.269,196.096 192.161,195.480 191.536 L 194.359 190.400 196.220 190.400 C 197.243 190.400,207.647 191.059,219.340 191.865 C 246.373 193.728,248.211 193.700,255.800 191.312 C 263.450 188.904,274.000 181.747,274.000 178.964 C 274.000 178.675,274.238 178.296,274.529 178.120 C 275.204 177.712,275.099 177.905,291.722 146.600 C 299.432 132.080,308.735 114.260,312.396 107.000 C 316.057 99.740,320.602 90.830,322.496 87.200 C 328.922 74.887,329.215 67.654,323.745 56.400 C 321.619 52.028,312.146 41.200,310.446 41.200 C 310.240 41.200,309.083 43.225,307.876 45.700 M273.810 116.700 C 273.659 117.085,273.537 127.570,273.541 140.000 C 273.546 158.978,273.464 162.375,273.027 161.196 C 271.205 156.267,267.493 150.605,263.196 146.200 L 260.075 143.000 264.071 135.000 C 270.239 122.649,273.676 116.000,273.890 116.000 C 273.998 116.000,273.962 116.315,273.810 116.700 M127.693 395.600 C 127.693 396.370,127.775 396.685,127.876 396.300 C 127.976 395.915,127.976 395.285,127.876 394.900 C 127.775 394.515,127.693 394.830,127.693 395.600 M120.454 410.100 C 120.494 411.040,120.557 411.151,120.682 410.500 C 120.778 410.005,121.023 409.600,121.228 409.600 C 121.433 409.600,121.600 409.420,121.600 409.200 C 121.600 408.980,121.330 408.800,121.000 408.800 C 120.579 408.800,120.416 409.187,120.454 410.100 " stroke="none" fill="#25a0d9" fill-rule="evenodd"></path><path id="path1" d="M0.000 243.200 L 0.000 486.400 200.000 486.400 L 400.000 486.400 400.000 243.200 L 400.000 0.000 200.000 0.000 L 0.000 0.000 0.000 243.200 M313.510 43.245 C 325.336 53.995,329.988 65.485,327.208 77.079 C 326.368 80.584,326.105 81.182,321.614 89.800 C 320.009 92.880,317.259 98.280,315.503 101.800 C 313.747 105.320,311.081 110.667,309.577 113.682 C 308.074 116.697,306.314 120.117,305.667 121.282 C 305.019 122.447,303.415 125.470,302.102 128.000 C 298.371 135.190,294.411 142.753,292.887 145.600 C 292.121 147.030,290.553 150.000,289.402 152.200 C 282.397 165.594,279.932 170.274,277.606 174.600 C 269.867 188.992,256.355 194.877,234.412 193.410 C 229.455 193.078,222.520 192.621,219.000 192.393 C 215.480 192.165,208.943 191.696,204.473 191.350 C 195.682 190.669,195.237 190.722,197.017 192.242 C 197.668 192.798,199.550 194.558,201.200 196.154 C 202.850 197.750,206.810 201.454,210.000 204.386 C 213.190 207.317,217.060 210.916,218.600 212.383 C 220.140 213.850,224.010 217.448,227.200 220.379 C 230.390 223.309,233.180 225.916,233.400 226.172 C 233.620 226.427,236.230 228.862,239.200 231.583 C 242.170 234.303,246.224 238.075,248.209 239.964 C 250.194 241.854,252.984 244.462,254.409 245.759 C 257.382 248.467,262.060 252.844,266.400 256.979 C 268.050 258.551,271.740 261.977,274.600 264.591 C 289.379 278.098,291.467 280.672,293.911 288.400 C 297.255 298.968,296.554 304.104,290.119 316.192 C 288.014 320.148,285.024 325.818,283.476 328.792 C 281.928 331.767,274.728 345.450,267.477 359.200 C 260.226 372.950,253.888 385.010,253.393 386.000 C 252.899 386.990,251.010 390.590,249.198 394.000 C 244.227 403.350,242.007 407.551,240.637 410.200 C 236.885 417.456,232.372 421.750,224.656 425.404 C 215.435 429.771,210.379 430.134,182.000 428.462 C 164.001 427.401,142.965 426.059,140.200 425.795 C 139.100 425.690,131.720 425.243,123.800 424.801 C 99.849 423.467,81.903 422.401,80.000 422.199 C 77.289 421.911,59.798 420.800,57.984 420.800 C 56.776 420.800,56.400 420.643,56.400 420.137 C 56.400 419.448,68.171 395.506,72.298 387.800 C 78.351 376.497,78.590 376.045,85.198 363.400 C 86.233 361.420,88.700 356.740,90.680 353.000 C 92.661 349.260,95.412 344.040,96.795 341.400 C 98.178 338.760,99.914 335.766,100.654 334.747 C 105.665 327.845,116.929 322.034,127.609 320.841 C 131.495 320.408,133.235 320.494,167.830 322.838 C 177.298 323.480,177.203 324.028,168.944 316.414 C 165.015 312.791,160.450 308.553,158.800 306.995 C 157.150 305.437,154.450 302.903,152.800 301.364 C 139.982 289.410,135.202 284.756,98.606 248.600 C 83.879 234.050,82.748 232.495,80.150 223.203 C 78.899 218.730,78.837 212.695,79.997 208.507 C 80.881 205.316,79.565 207.864,118.796 133.400 C 119.955 131.200,121.894 127.510,123.105 125.200 C 124.316 122.890,125.890 119.920,126.603 118.600 C 127.315 117.280,128.939 114.220,130.211 111.800 C 134.497 103.644,136.504 100.209,138.156 98.204 C 145.723 89.019,160.143 83.459,172.985 84.776 C 175.413 85.025,184.240 85.680,192.600 86.232 C 213.603 87.619,217.937 87.925,223.000 88.381 C 226.756 88.719,236.395 89.396,274.400 91.990 C 277.590 92.208,281.100 92.486,282.200 92.608 L 284.200 92.831 285.673 89.915 C 286.483 88.312,289.745 81.690,292.921 75.200 C 296.097 68.710,300.812 59.080,303.398 53.800 C 305.984 48.520,308.431 43.435,308.836 42.500 C 309.806 40.258,310.313 40.339,313.510 43.245 " stroke="none" fill="#f4f4f4" fill-rule="evenodd"></path><path id="path2" d="M317.000 47.200 C 318.528 48.740,319.869 50.000,319.979 50.000 C 320.089 50.000,318.928 48.740,317.400 47.200 C 315.872 45.660,314.531 44.400,314.421 44.400 C 314.311 44.400,315.472 45.660,317.000 47.200 M167.300 85.094 C 168.345 85.176,170.055 85.176,171.100 85.094 C 172.145 85.012,171.290 84.944,169.200 84.944 C 167.110 84.944,166.255 85.012,167.300 85.094 M182.305 85.883 C 182.802 85.979,183.522 85.975,183.905 85.875 C 184.287 85.775,183.880 85.696,183.000 85.701 C 182.120 85.705,181.807 85.787,182.305 85.883 M187.500 86.282 C 187.995 86.378,188.805 86.378,189.300 86.282 C 189.795 86.187,189.390 86.109,188.400 86.109 C 187.410 86.109,187.005 86.187,187.500 86.282 M193.305 86.687 C 193.914 86.779,194.814 86.777,195.305 86.682 C 195.797 86.587,195.300 86.511,194.200 86.514 C 193.100 86.517,192.697 86.595,193.305 86.687 M198.307 87.090 C 199.026 87.179,200.106 87.177,200.707 87.086 C 201.308 86.995,200.720 86.922,199.400 86.924 C 198.080 86.926,197.588 87.001,198.307 87.090 M203.900 87.482 C 204.395 87.578,205.205 87.578,205.700 87.482 C 206.195 87.387,205.790 87.309,204.800 87.309 C 203.810 87.309,203.405 87.387,203.900 87.482 M209.105 87.883 C 209.602 87.979,210.322 87.975,210.705 87.875 C 211.087 87.775,210.680 87.696,209.800 87.701 C 208.920 87.705,208.607 87.787,209.105 87.883 M231.905 89.483 C 232.402 89.579,233.122 89.575,233.505 89.475 C 233.887 89.375,233.480 89.296,232.600 89.301 C 231.720 89.305,231.407 89.387,231.905 89.483 M237.905 89.883 C 238.402 89.979,239.122 89.975,239.505 89.875 C 239.887 89.775,239.480 89.696,238.600 89.701 C 237.720 89.705,237.407 89.787,237.905 89.883 M242.700 90.282 C 243.195 90.378,244.005 90.378,244.500 90.282 C 244.995 90.187,244.590 90.109,243.600 90.109 C 242.610 90.109,242.205 90.187,242.700 90.282 M248.505 90.687 C 249.114 90.779,250.014 90.777,250.505 90.682 C 250.997 90.587,250.500 90.511,249.400 90.514 C 248.300 90.517,247.897 90.595,248.505 90.687 M253.700 91.087 C 254.305 91.178,255.295 91.178,255.900 91.087 C 256.505 90.995,256.010 90.920,254.800 90.920 C 253.590 90.920,253.095 90.995,253.700 91.087 M259.305 91.487 C 259.914 91.579,260.814 91.577,261.305 91.482 C 261.797 91.387,261.300 91.311,260.200 91.314 C 259.100 91.317,258.697 91.395,259.305 91.487 M270.305 92.283 C 270.802 92.379,271.522 92.375,271.905 92.275 C 272.287 92.175,271.880 92.096,271.000 92.101 C 270.120 92.105,269.807 92.187,270.305 92.283 M281.105 93.083 C 281.602 93.179,282.322 93.175,282.705 93.075 C 283.087 92.975,282.680 92.896,281.800 92.901 C 280.920 92.905,280.607 92.987,281.105 93.083 M316.600 98.400 C 316.259 99.060,316.069 99.600,316.179 99.600 C 316.289 99.600,316.659 99.060,317.000 98.400 C 317.341 97.740,317.531 97.200,317.421 97.200 C 317.311 97.200,316.941 97.740,316.600 98.400 M131.970 109.287 C 131.674 110.009,130.776 111.770,129.975 113.200 C 128.702 115.471,126.129 120.342,117.194 137.400 C 116.041 139.600,112.581 146.170,109.504 152.000 C 102.225 165.793,100.182 169.672,97.391 175.000 C 96.123 177.420,92.032 185.213,88.298 192.318 C 79.378 209.292,79.837 208.042,79.817 215.400 C 79.785 226.832,82.966 233.048,94.658 244.400 C 99.840 249.431,99.370 248.621,93.730 242.800 C 88.057 236.944,86.820 235.501,86.809 234.724 C 86.804 234.352,86.644 233.951,86.454 233.833 C 86.263 233.716,86.549 232.698,87.088 231.572 C 87.713 230.265,87.980 229.175,87.826 228.562 C 87.652 227.870,87.751 227.600,88.178 227.600 C 88.837 227.600,89.600 226.414,89.600 225.390 C 89.600 225.026,89.934 224.429,90.343 224.064 C 90.751 223.699,91.413 222.500,91.814 221.400 C 92.215 220.300,92.782 219.161,93.075 218.868 C 93.368 218.575,93.505 218.170,93.380 217.968 C 93.255 217.765,93.343 217.600,93.576 217.600 C 93.809 217.600,94.000 217.345,94.000 217.033 C 94.000 216.722,94.185 216.405,94.410 216.330 C 94.636 216.255,94.882 215.514,94.956 214.684 C 95.031 213.854,95.235 213.046,95.410 212.887 C 95.585 212.729,95.599 212.825,95.441 213.100 C 95.282 213.375,95.249 213.600,95.366 213.600 C 95.743 213.600,96.696 211.416,96.526 210.942 C 96.435 210.689,96.820 209.988,97.381 209.383 C 97.941 208.778,98.400 207.962,98.400 207.570 C 98.400 207.178,98.625 206.619,98.900 206.329 C 99.175 206.038,99.655 205.305,99.968 204.700 C 100.280 204.095,100.685 203.600,100.868 203.600 C 101.050 203.600,101.200 203.345,101.200 203.033 C 101.200 202.722,101.380 202.407,101.599 202.333 C 101.819 202.260,102.028 201.435,102.065 200.500 C 102.111 199.311,102.306 198.800,102.712 198.800 C 103.114 198.800,103.235 198.496,103.104 197.812 C 103.001 197.269,103.070 196.919,103.258 197.036 C 103.446 197.152,103.600 196.899,103.600 196.473 C 103.600 196.047,103.870 195.474,104.200 195.200 C 104.530 194.926,104.800 194.392,104.800 194.013 C 104.800 193.634,105.160 192.998,105.600 192.600 C 106.040 192.202,106.400 191.586,106.400 191.231 C 106.400 190.876,106.850 189.923,107.400 189.114 C 107.950 188.305,108.400 187.363,108.400 187.021 C 108.400 186.680,108.541 186.400,108.713 186.400 C 108.885 186.400,109.265 185.590,109.557 184.600 C 109.849 183.610,110.248 182.800,110.444 182.800 C 110.640 182.800,110.800 182.350,110.800 181.800 C 110.800 181.178,111.027 180.800,111.400 180.800 C 111.760 180.800,112.000 180.431,112.000 179.875 C 112.000 179.367,112.360 178.564,112.800 178.092 C 113.240 177.620,113.600 176.967,113.600 176.640 C 113.600 176.314,113.780 175.936,114.000 175.800 C 114.220 175.664,114.400 175.218,114.400 174.810 C 114.400 174.401,114.535 174.007,114.700 173.933 C 115.140 173.738,116.400 171.231,116.400 170.551 C 116.400 170.229,116.760 169.580,117.200 169.108 C 117.640 168.636,118.000 167.923,118.000 167.525 C 118.000 167.126,118.177 166.800,118.392 166.800 C 118.608 166.800,118.907 166.305,119.056 165.700 C 119.206 165.095,119.662 164.307,120.070 163.948 C 120.542 163.533,120.713 163.040,120.541 162.590 C 120.381 162.173,120.501 161.700,120.835 161.434 C 121.583 160.838,122.400 159.361,122.400 158.605 C 122.400 158.272,122.580 158.000,122.800 158.000 C 123.020 158.000,123.201 157.775,123.202 157.500 C 123.204 157.225,123.480 156.472,123.817 155.826 C 124.154 155.181,124.338 154.416,124.227 154.126 C 124.116 153.837,124.289 153.600,124.613 153.600 C 124.972 153.600,125.200 153.213,125.200 152.600 C 125.200 152.050,125.350 151.600,125.532 151.600 C 125.715 151.600,126.120 151.105,126.432 150.500 C 126.744 149.895,127.089 149.310,127.199 149.200 C 127.658 148.742,128.800 146.293,128.800 145.768 C 128.800 145.455,128.980 145.200,129.200 145.200 C 129.420 145.200,129.600 144.840,129.600 144.400 C 129.600 143.960,129.780 143.600,130.000 143.600 C 130.220 143.600,130.400 142.959,130.400 142.176 C 130.400 141.393,130.560 140.852,130.755 140.972 C 130.951 141.093,131.518 140.187,132.016 138.960 C 132.514 137.732,133.139 136.645,133.404 136.543 C 133.669 136.441,134.120 135.648,134.407 134.779 C 134.694 133.911,135.079 133.200,135.264 133.200 C 135.739 133.200,135.683 131.299,135.200 131.000 C 134.980 130.864,134.800 130.246,134.800 129.627 C 134.800 129.008,134.410 127.624,133.934 126.551 C 131.918 122.013,131.003 113.176,132.200 109.815 C 132.890 107.876,132.714 107.471,131.970 109.287 M263.065 138.300 C 260.356 142.601,260.298 143.135,262.361 144.769 C 264.756 146.666,265.780 145.684,264.831 142.400 C 264.672 141.850,264.704 140.794,264.903 140.053 C 265.710 137.040,264.554 135.937,263.065 138.300 M271.385 182.500 L 269.400 184.600 271.500 182.615 C 273.451 180.771,273.783 180.400,273.485 180.400 C 273.422 180.400,272.477 181.345,271.385 182.500 M209.905 191.483 C 210.402 191.579,211.122 191.575,211.505 191.475 C 211.887 191.375,211.480 191.296,210.600 191.301 C 209.720 191.305,209.407 191.387,209.905 191.483 M215.300 191.887 C 215.905 191.978,216.895 191.978,217.500 191.887 C 218.105 191.795,217.610 191.720,216.400 191.720 C 215.190 191.720,214.695 191.795,215.300 191.887 M221.100 192.282 C 221.595 192.378,222.405 192.378,222.900 192.282 C 223.395 192.187,222.990 192.109,222.000 192.109 C 221.010 192.109,220.605 192.187,221.100 192.282 M226.307 192.690 C 227.026 192.779,228.106 192.777,228.707 192.686 C 229.308 192.595,228.720 192.522,227.400 192.524 C 226.080 192.526,225.588 192.601,226.307 192.690 M232.100 193.087 C 232.705 193.178,233.695 193.178,234.300 193.087 C 234.905 192.995,234.410 192.920,233.200 192.920 C 231.990 192.920,231.495 192.995,232.100 193.087 M237.700 193.476 C 238.085 193.576,238.715 193.576,239.100 193.476 C 239.485 193.375,239.170 193.293,238.400 193.293 C 237.630 193.293,237.315 193.375,237.700 193.476 M209.600 204.600 C 210.346 205.370,211.047 206.000,211.157 206.000 C 211.267 206.000,210.746 205.370,210.000 204.600 C 209.254 203.830,208.553 203.200,208.443 203.200 C 208.333 203.200,208.854 203.830,209.600 204.600 M227.200 221.000 C 227.946 221.770,228.647 222.400,228.757 222.400 C 228.867 222.400,228.346 221.770,227.600 221.000 C 226.854 220.230,226.153 219.600,226.043 219.600 C 225.933 219.600,226.454 220.230,227.200 221.000 M244.800 237.400 C 245.546 238.170,246.247 238.800,246.357 238.800 C 246.467 238.800,245.946 238.170,245.200 237.400 C 244.454 236.630,243.753 236.000,243.643 236.000 C 243.533 236.000,244.054 236.630,244.800 237.400 M256.400 248.200 C 257.146 248.970,257.847 249.600,257.957 249.600 C 258.067 249.600,257.546 248.970,256.800 248.200 C 256.054 247.430,255.353 246.800,255.243 246.800 C 255.133 246.800,255.654 247.430,256.400 248.200 M262.383 253.700 C 263.364 254.745,264.219 255.600,264.283 255.600 C 264.584 255.600,264.266 255.241,262.500 253.583 L 260.600 251.800 262.383 253.700 M274.200 264.800 C 275.059 265.680,275.852 266.400,275.962 266.400 C 276.072 266.400,275.459 265.680,274.600 264.800 C 273.741 263.920,272.948 263.200,272.838 263.200 C 272.728 263.200,273.341 263.920,274.200 264.800 M279.800 270.000 C 280.659 270.880,281.452 271.600,281.562 271.600 C 281.672 271.600,281.059 270.880,280.200 270.000 C 279.341 269.120,278.548 268.400,278.438 268.400 C 278.328 268.400,278.941 269.120,279.800 270.000 M124.400 273.800 C 125.817 275.230,127.067 276.400,127.177 276.400 C 127.287 276.400,126.217 275.230,124.800 273.800 C 123.383 272.370,122.133 271.200,122.023 271.200 C 121.913 271.200,122.983 272.370,124.400 273.800 M140.600 289.600 C 141.683 290.700,142.660 291.600,142.770 291.600 C 142.880 291.600,142.083 290.700,141.000 289.600 C 139.917 288.500,138.940 287.600,138.830 287.600 C 138.720 287.600,139.517 288.500,140.600 289.600 M295.337 299.000 C 295.339 300.760,295.409 301.430,295.493 300.489 C 295.578 299.549,295.577 298.109,295.491 297.289 C 295.405 296.470,295.336 297.240,295.337 299.000 M148.000 296.525 C 148.000 296.594,148.585 297.179,149.300 297.825 L 150.600 299.000 149.425 297.700 C 148.330 296.488,148.000 296.216,148.000 296.525 M153.200 301.325 C 153.200 301.394,153.785 301.979,154.500 302.625 L 155.800 303.800 154.625 302.500 C 153.530 301.288,153.200 301.016,153.200 301.325 M292.200 311.200 C 291.859 311.860,291.669 312.400,291.779 312.400 C 291.889 312.400,292.259 311.860,292.600 311.200 C 292.941 310.540,293.131 310.000,293.021 310.000 C 292.911 310.000,292.541 310.540,292.200 311.200 M165.200 312.525 C 165.200 312.594,165.785 313.179,166.500 313.825 L 167.800 315.000 166.625 313.700 C 165.530 312.488,165.200 312.216,165.200 312.525 M288.400 318.400 C 287.951 319.280,287.674 320.000,287.784 320.000 C 287.894 320.000,288.351 319.280,288.800 318.400 C 289.249 317.520,289.526 316.800,289.416 316.800 C 289.306 316.800,288.849 317.520,288.400 318.400 M125.569 321.392 C 116.254 323.166,108.665 326.978,103.126 332.665 C 100.807 335.047,99.458 337.209,95.275 345.252 C 91.326 352.843,85.750 363.447,82.681 369.200 C 81.203 371.969,79.926 374.392,75.404 383.000 C 74.479 384.760,72.673 388.180,71.390 390.600 C 70.107 393.020,66.750 399.680,63.930 405.400 C 61.110 411.120,58.352 416.691,57.802 417.781 C 56.464 420.428,55.806 420.239,69.600 421.169 C 92.534 422.715,103.458 423.323,103.167 423.036 C 103.075 422.945,100.120 422.672,96.600 422.428 C 89.212 421.918,83.600 421.203,83.600 420.773 C 83.600 420.609,83.988 420.576,84.463 420.700 C 85.013 420.844,85.230 420.773,85.063 420.502 C 84.919 420.269,83.691 419.950,82.334 419.792 C 80.494 419.579,80.037 419.411,80.537 419.131 C 80.905 418.925,81.349 418.845,81.522 418.952 C 81.997 419.245,82.561 418.727,83.100 417.500 C 83.396 416.825,83.894 416.400,84.387 416.400 C 84.908 416.400,85.170 416.154,85.132 415.700 C 84.921 413.186,85.209 411.949,85.950 412.184 C 86.575 412.383,86.776 412.106,87.163 410.511 C 87.417 409.460,87.878 408.060,88.187 407.400 C 88.496 406.740,88.860 405.845,88.996 405.411 C 89.202 404.752,89.304 404.719,89.615 405.211 C 89.895 405.653,89.992 405.500,90.007 404.600 C 90.017 403.940,90.290 403.051,90.613 402.624 C 90.936 402.196,91.200 401.442,91.200 400.947 C 91.200 400.452,91.380 399.936,91.600 399.800 C 91.820 399.664,92.000 399.187,92.000 398.739 C 92.000 398.278,92.327 397.840,92.754 397.728 C 93.272 397.592,93.589 397.028,93.765 395.926 C 93.907 395.043,94.242 394.091,94.511 393.809 C 94.780 393.528,95.270 392.899,95.600 392.412 C 95.930 391.924,96.515 391.155,96.900 390.701 C 97.285 390.248,97.600 389.503,97.600 389.045 C 97.600 387.659,100.015 383.200,100.766 383.200 C 101.300 383.200,101.406 382.910,101.275 381.795 C 101.115 380.422,102.755 377.728,104.742 376.100 C 105.123 375.788,105.174 375.600,104.876 375.600 C 104.587 375.600,104.400 374.971,104.400 374.000 C 104.400 373.120,104.568 372.400,104.773 372.400 C 104.978 372.400,105.264 372.030,105.407 371.577 C 105.551 371.124,106.114 370.585,106.658 370.378 C 107.203 370.171,107.550 369.843,107.431 369.650 C 107.043 369.023,108.372 365.337,109.340 364.356 C 110.651 363.026,111.200 361.862,111.200 360.412 C 111.200 358.669,112.626 356.484,114.200 355.816 C 114.918 355.511,114.928 355.459,114.300 355.309 C 113.444 355.104,113.386 354.457,114.196 354.146 C 114.523 354.021,114.980 353.216,115.211 352.359 C 115.442 351.501,115.804 350.800,116.015 350.800 C 116.227 350.800,116.400 350.573,116.400 350.296 C 116.400 350.019,116.739 349.581,117.154 349.322 C 117.601 349.042,118.102 347.986,118.384 346.725 C 119.128 343.407,119.643 342.365,120.762 341.919 C 121.359 341.681,121.587 341.426,121.300 341.319 C 120.601 341.059,120.673 339.600,121.385 339.600 C 121.729 339.600,122.148 338.937,122.403 337.988 C 122.642 337.101,123.009 336.482,123.219 336.612 C 123.428 336.741,123.600 336.567,123.600 336.224 C 123.600 335.881,123.780 335.600,124.000 335.600 C 124.220 335.600,124.400 335.370,124.400 335.088 C 124.400 334.807,124.740 334.332,125.154 334.033 C 125.738 333.612,125.864 333.151,125.709 332.000 C 125.468 330.203,126.544 327.682,127.763 327.189 C 128.223 327.003,128.396 326.839,128.147 326.825 C 127.459 326.787,127.157 325.200,127.837 325.200 C 128.147 325.200,128.400 324.930,128.400 324.600 C 128.400 324.270,128.670 324.000,129.000 324.000 C 129.330 324.000,129.600 324.192,129.600 324.427 C 129.600 324.966,131.622 324.741,131.634 324.200 C 131.639 323.980,130.926 323.620,130.049 323.400 C 129.173 323.180,128.341 322.883,128.201 322.740 C 127.501 322.024,137.987 321.690,148.000 322.107 L 153.800 322.350 147.200 321.808 C 135.874 320.879,128.964 320.746,125.569 321.392 M156.800 322.812 C 158.450 322.968,160.880 323.090,162.200 323.083 L 164.600 323.071 161.600 322.788 C 159.950 322.632,157.520 322.510,156.200 322.517 L 153.800 322.529 156.800 322.812 M168.300 323.482 C 168.795 323.578,169.605 323.578,170.100 323.482 C 170.595 323.387,170.190 323.309,169.200 323.309 C 168.210 323.309,167.805 323.387,168.300 323.482 M174.100 323.887 C 174.705 323.978,175.695 323.978,176.300 323.887 C 176.905 323.795,176.410 323.720,175.200 323.720 C 173.990 323.720,173.495 323.795,174.100 323.887 M284.400 326.000 C 283.951 326.880,283.674 327.600,283.784 327.600 C 283.894 327.600,284.351 326.880,284.800 326.000 C 285.249 325.120,285.526 324.400,285.416 324.400 C 285.306 324.400,284.849 325.120,284.400 326.000 M280.400 333.600 C 279.951 334.480,279.674 335.200,279.784 335.200 C 279.894 335.200,280.351 334.480,280.800 333.600 C 281.249 332.720,281.526 332.000,281.416 332.000 C 281.306 332.000,280.849 332.720,280.400 333.600 M276.600 340.800 C 276.259 341.460,276.069 342.000,276.179 342.000 C 276.289 342.000,276.659 341.460,277.000 340.800 C 277.341 340.140,277.531 339.600,277.421 339.600 C 277.311 339.600,276.941 340.140,276.600 340.800 M272.000 349.600 C 271.551 350.480,271.274 351.200,271.384 351.200 C 271.494 351.200,271.951 350.480,272.400 349.600 C 272.849 348.720,273.126 348.000,273.016 348.000 C 272.906 348.000,272.449 348.720,272.000 349.600 M267.800 357.600 C 267.459 358.260,267.269 358.800,267.379 358.800 C 267.489 358.800,267.859 358.260,268.200 357.600 C 268.541 356.940,268.731 356.400,268.621 356.400 C 268.511 356.400,268.141 356.940,267.800 357.600 M263.400 366.000 C 263.059 366.660,262.869 367.200,262.979 367.200 C 263.089 367.200,263.459 366.660,263.800 366.000 C 264.141 365.340,264.331 364.800,264.221 364.800 C 264.111 364.800,263.741 365.340,263.400 366.000 M260.200 372.000 C 259.859 372.660,259.669 373.200,259.779 373.200 C 259.889 373.200,260.259 372.660,260.600 372.000 C 260.941 371.340,261.131 370.800,261.021 370.800 C 260.911 370.800,260.541 371.340,260.200 372.000 M255.800 380.400 C 255.459 381.060,255.269 381.600,255.379 381.600 C 255.489 381.600,255.859 381.060,256.200 380.400 C 256.541 379.740,256.731 379.200,256.621 379.200 C 256.511 379.200,256.141 379.740,255.800 380.400 M251.800 388.000 C 251.459 388.660,251.269 389.200,251.379 389.200 C 251.489 389.200,251.859 388.660,252.200 388.000 C 252.541 387.340,252.731 386.800,252.621 386.800 C 252.511 386.800,252.141 387.340,251.800 388.000 M248.200 394.800 C 247.859 395.460,247.669 396.000,247.779 396.000 C 247.889 396.000,248.259 395.460,248.600 394.800 C 248.941 394.140,249.131 393.600,249.021 393.600 C 248.911 393.600,248.541 394.140,248.200 394.800 M243.800 403.200 C 243.459 403.860,243.269 404.400,243.379 404.400 C 243.489 404.400,243.859 403.860,244.200 403.200 C 244.541 402.540,244.731 402.000,244.621 402.000 C 244.511 402.000,244.141 402.540,243.800 403.200 M234.386 418.300 L 232.200 420.600 234.500 418.414 C 236.637 416.382,236.983 416.000,236.686 416.000 C 236.624 416.000,235.589 417.035,234.386 418.300 M110.800 423.796 C 114.430 424.067,119.830 424.389,122.800 424.510 C 127.456 424.701,127.677 424.685,124.400 424.396 C 117.244 423.765,108.200 423.195,106.200 423.249 C 105.100 423.279,107.170 423.526,110.800 423.796 M130.705 425.083 C 131.202 425.179,131.922 425.175,132.305 425.075 C 132.687 424.975,132.280 424.896,131.400 424.901 C 130.520 424.905,130.207 424.987,130.705 425.083 M137.305 425.487 C 137.914 425.579,138.814 425.577,139.305 425.482 C 139.797 425.387,139.300 425.311,138.200 425.314 C 137.100 425.317,136.697 425.395,137.305 425.487 M143.905 425.883 C 144.402 425.979,145.122 425.975,145.505 425.875 C 145.887 425.775,145.480 425.696,144.600 425.701 C 143.720 425.705,143.407 425.787,143.905 425.883 M150.905 426.287 C 151.514 426.379,152.414 426.377,152.905 426.282 C 153.397 426.187,152.900 426.111,151.800 426.114 C 150.700 426.117,150.297 426.195,150.905 426.287 M157.100 426.682 C 157.595 426.778,158.405 426.778,158.900 426.682 C 159.395 426.587,158.990 426.509,158.000 426.509 C 157.010 426.509,156.605 426.587,157.100 426.682 M163.500 427.089 C 164.215 427.178,165.385 427.178,166.100 427.089 C 166.815 427.001,166.230 426.928,164.800 426.928 C 163.370 426.928,162.785 427.001,163.500 427.089 M169.700 427.487 C 170.305 427.578,171.295 427.578,171.900 427.487 C 172.505 427.395,172.010 427.320,170.800 427.320 C 169.590 427.320,169.095 427.395,169.700 427.487 M175.891 427.889 C 176.601 427.977,177.861 427.979,178.691 427.892 C 179.521 427.805,178.940 427.733,177.400 427.731 C 175.860 427.729,175.181 427.800,175.891 427.889 M182.905 428.287 C 183.514 428.379,184.414 428.377,184.905 428.282 C 185.397 428.187,184.900 428.111,183.800 428.114 C 182.700 428.117,182.297 428.195,182.905 428.287 M188.700 428.682 C 189.195 428.778,190.005 428.778,190.500 428.682 C 190.995 428.587,190.590 428.509,189.600 428.509 C 188.610 428.509,188.205 428.587,188.700 428.682 M195.900 429.082 C 196.395 429.178,197.205 429.178,197.700 429.082 C 198.195 428.987,197.790 428.909,196.800 428.909 C 195.810 428.909,195.405 428.987,195.900 429.082 " stroke="none" fill="#88d0e9" fill-rule="evenodd"></path><path id="path3" d="M131.850 110.850 C 131.535 112.425,131.594 117.897,131.940 119.125 C 132.083 119.633,132.200 117.698,132.200 114.825 C 132.200 109.048,132.203 109.084,131.850 110.850 M270.880 121.500 C 269.333 124.525,266.268 130.600,264.071 135.000 L 260.075 143.000 263.196 146.200 C 267.493 150.605,271.205 156.267,273.027 161.196 C 273.464 162.375,273.546 158.978,273.541 140.000 C 273.537 127.570,273.659 117.085,273.810 116.700 C 274.670 114.516,273.337 116.700,270.880 121.500 M132.625 122.167 C 132.759 123.248,133.303 125.116,133.834 126.316 C 134.366 127.517,134.800 129.007,134.800 129.626 C 134.800 130.246,134.980 130.864,135.200 131.000 C 135.683 131.299,135.739 133.200,135.264 133.200 C 135.079 133.200,134.694 133.911,134.407 134.779 C 134.120 135.648,133.669 136.441,133.404 136.543 C 133.139 136.645,132.514 137.732,132.016 138.960 C 131.518 140.187,130.951 141.093,130.755 140.972 C 130.560 140.852,130.400 141.393,130.400 142.176 C 130.400 142.959,130.220 143.600,130.000 143.600 C 129.780 143.600,129.600 143.960,129.600 144.400 C 129.600 144.840,129.420 145.200,129.200 145.200 C 128.980 145.200,128.800 145.455,128.800 145.768 C 128.800 146.293,127.658 148.742,127.199 149.200 C 127.089 149.310,126.744 149.895,126.432 150.500 C 126.120 151.105,125.715 151.600,125.532 151.600 C 125.350 151.600,125.200 152.050,125.200 152.600 C 125.200 153.213,124.972 153.600,124.613 153.600 C 124.289 153.600,124.116 153.837,124.227 154.126 C 124.338 154.416,124.154 155.181,123.817 155.826 C 123.480 156.472,123.204 157.225,123.202 157.500 C 123.201 157.775,123.020 158.000,122.800 158.000 C 122.580 158.000,122.400 158.272,122.400 158.605 C 122.400 159.361,121.583 160.838,120.835 161.434 C 120.501 161.700,120.381 162.173,120.541 162.590 C 120.713 163.040,120.542 163.533,120.070 163.948 C 119.662 164.307,119.206 165.095,119.056 165.700 C 118.907 166.305,118.608 166.800,118.392 166.800 C 118.177 166.800,118.000 167.126,118.000 167.525 C 118.000 167.923,117.640 168.636,117.200 169.108 C 116.760 169.580,116.400 170.229,116.400 170.551 C 116.400 171.231,115.140 173.738,114.700 173.933 C 114.535 174.007,114.400 174.401,114.400 174.810 C 114.400 175.218,114.220 175.664,114.000 175.800 C 113.780 175.936,113.600 176.314,113.600 176.640 C 113.600 176.967,113.240 177.620,112.800 178.092 C 112.360 178.564,112.000 179.367,112.000 179.875 C 112.000 180.431,111.760 180.800,111.400 180.800 C 111.027 180.800,110.800 181.178,110.800 181.800 C 110.800 182.350,110.640 182.800,110.444 182.800 C 110.248 182.800,109.849 183.610,109.557 184.600 C 109.265 185.590,108.885 186.400,108.713 186.400 C 108.541 186.400,108.400 186.680,108.400 187.021 C 108.400 187.363,107.950 188.305,107.400 189.114 C 106.850 189.923,106.400 190.876,106.400 191.231 C 106.400 191.586,106.040 192.202,105.600 192.600 C 105.160 192.998,104.800 193.634,104.800 194.013 C 104.800 194.392,104.530 194.926,104.200 195.200 C 103.870 195.474,103.600 196.047,103.600 196.473 C 103.600 196.899,103.446 197.152,103.258 197.036 C 103.070 196.919,103.001 197.269,103.104 197.812 C 103.235 198.496,103.114 198.800,102.712 198.800 C 102.306 198.800,102.111 199.311,102.065 200.500 C 102.028 201.435,101.819 202.260,101.599 202.333 C 101.380 202.407,101.200 202.722,101.200 203.033 C 101.200 203.345,101.050 203.600,100.868 203.600 C 100.685 203.600,100.280 204.095,99.968 204.700 C 99.655 205.305,99.175 206.038,98.900 206.329 C 98.625 206.619,98.400 207.178,98.400 207.570 C 98.400 207.962,97.941 208.778,97.381 209.383 C 96.820 209.988,96.435 210.689,96.526 210.942 C 96.696 211.416,95.743 213.600,95.366 213.600 C 95.249 213.600,95.282 213.375,95.441 213.100 C 95.599 212.825,95.585 212.729,95.410 212.887 C 95.235 213.046,95.031 213.854,94.956 214.684 C 94.882 215.514,94.636 216.255,94.410 216.330 C 94.185 216.405,94.000 216.722,94.000 217.033 C 94.000 217.345,93.809 217.600,93.576 217.600 C 93.343 217.600,93.255 217.765,93.380 217.968 C 93.505 218.170,93.368 218.575,93.075 218.868 C 92.782 219.161,92.215 220.300,91.814 221.400 C 91.413 222.500,90.751 223.699,90.343 224.064 C 89.934 224.429,89.600 225.026,89.600 225.390 C 89.600 226.414,88.837 227.600,88.178 227.600 C 87.751 227.600,87.652 227.870,87.826 228.562 C 87.980 229.175,87.713 230.265,87.088 231.572 C 86.549 232.698,86.263 233.716,86.454 233.833 C 86.644 233.951,86.804 234.352,86.808 234.724 C 86.820 235.712,89.864 238.975,104.586 253.776 C 116.607 265.862,118.323 267.487,110.987 259.839 C 109.082 257.853,108.395 256.861,108.540 256.307 C 108.679 255.776,108.574 255.601,108.204 255.743 C 107.908 255.857,107.573 255.706,107.458 255.408 C 107.344 255.110,107.509 254.767,107.825 254.646 C 108.141 254.524,108.400 254.162,108.400 253.841 C 108.400 253.520,108.636 253.019,108.924 252.729 C 109.769 251.875,110.800 249.556,110.800 248.506 C 110.800 247.972,111.395 246.784,112.122 245.867 C 113.597 244.008,114.400 242.355,114.400 241.181 C 114.400 240.752,114.560 240.400,114.757 240.400 C 114.953 240.400,115.235 239.916,115.383 239.324 C 115.532 238.732,115.973 237.967,116.364 237.624 C 117.310 236.793,118.000 235.443,118.000 234.421 C 118.000 233.557,118.637 232.226,119.500 231.287 C 119.775 230.988,120.003 230.531,120.007 230.271 C 120.011 230.012,120.551 229.008,121.207 228.040 C 121.863 227.072,122.400 226.009,122.400 225.678 C 122.400 224.776,124.366 220.800,124.812 220.800 C 125.025 220.800,125.200 220.361,125.200 219.824 C 125.200 219.287,125.380 218.736,125.600 218.600 C 125.820 218.464,126.004 218.048,126.009 217.676 C 126.014 217.304,126.370 216.550,126.800 216.000 C 127.230 215.450,127.586 214.625,127.591 214.168 C 127.596 213.706,128.025 213.108,128.553 212.825 C 129.243 212.456,129.567 211.860,129.727 210.666 C 129.849 209.759,130.140 208.953,130.374 208.875 C 130.608 208.797,130.800 208.506,130.800 208.228 C 130.800 207.950,131.160 207.307,131.600 206.800 C 132.040 206.293,132.400 205.556,132.400 205.162 C 132.400 204.769,132.566 204.345,132.769 204.219 C 132.972 204.094,133.254 203.465,133.395 202.823 C 133.536 202.181,133.910 201.441,134.226 201.179 C 134.542 200.917,134.800 200.289,134.800 199.784 C 134.800 199.280,134.935 198.807,135.100 198.733 C 135.550 198.533,140.400 188.438,140.400 187.702 C 140.400 187.462,140.560 187.207,140.756 187.133 C 140.952 187.060,141.660 185.830,142.330 184.400 C 143.000 182.970,143.992 180.990,144.533 180.000 C 145.903 177.496,147.200 174.513,147.200 173.866 C 147.200 173.568,147.560 172.998,148.000 172.600 C 148.440 172.202,148.800 171.693,148.800 171.470 C 148.800 171.246,149.035 170.779,149.323 170.431 C 149.610 170.084,150.543 168.270,151.396 166.400 C 152.249 164.530,153.057 162.910,153.190 162.800 C 153.324 162.690,153.691 161.790,154.007 160.800 C 154.322 159.810,154.909 158.641,155.311 158.202 C 155.713 157.763,155.957 157.077,155.852 156.678 C 155.744 156.264,155.917 155.853,156.254 155.724 C 156.580 155.599,156.751 155.250,156.636 154.948 C 156.520 154.647,156.619 154.400,156.856 154.400 C 157.093 154.400,153.828 150.903,149.599 146.630 C 139.298 136.220,135.816 131.209,133.317 123.200 C 132.458 120.445,132.401 120.360,132.625 122.167 M265.024 137.753 C 265.156 138.278,265.101 139.313,264.903 140.053 C 264.704 140.794,264.672 141.850,264.831 142.400 C 265.780 145.684,264.756 146.666,262.361 144.769 C 260.298 143.135,260.356 142.601,263.065 138.300 C 264.159 136.563,264.688 136.415,265.024 137.753 M281.400 166.000 C 281.059 166.660,280.869 167.200,280.979 167.200 C 281.089 167.200,281.459 166.660,281.800 166.000 C 282.141 165.340,282.331 164.800,282.221 164.800 C 282.111 164.800,281.741 165.340,281.400 166.000 M276.600 174.800 C 276.259 175.460,276.069 176.000,276.179 176.000 C 276.289 176.000,276.659 175.460,277.000 174.800 C 277.341 174.140,277.531 173.600,277.421 173.600 C 277.311 173.600,276.941 174.140,276.600 174.800 M244.500 193.476 C 244.885 193.576,245.515 193.576,245.900 193.476 C 246.285 193.375,245.970 193.293,245.200 193.293 C 244.430 193.293,244.115 193.375,244.500 193.476 M201.000 196.800 C 201.859 197.680,202.652 198.400,202.762 198.400 C 202.872 198.400,202.259 197.680,201.400 196.800 C 200.541 195.920,199.748 195.200,199.638 195.200 C 199.528 195.200,200.141 195.920,201.000 196.800 M206.800 202.200 C 207.995 203.410,209.063 204.400,209.173 204.400 C 209.283 204.400,208.395 203.410,207.200 202.200 C 206.005 200.990,204.937 200.000,204.827 200.000 C 204.717 200.000,205.605 200.990,206.800 202.200 M212.600 207.600 C 213.459 208.480,214.252 209.200,214.362 209.200 C 214.472 209.200,213.859 208.480,213.000 207.600 C 212.141 206.720,211.348 206.000,211.238 206.000 C 211.128 206.000,211.741 206.720,212.600 207.600 M218.800 213.400 C 219.546 214.170,220.247 214.800,220.357 214.800 C 220.467 214.800,219.946 214.170,219.200 213.400 C 218.454 212.630,217.753 212.000,217.643 212.000 C 217.533 212.000,218.054 212.630,218.800 213.400 M230.200 224.000 C 231.059 224.880,231.852 225.600,231.962 225.600 C 232.072 225.600,231.459 224.880,230.600 224.000 C 229.741 223.120,228.948 222.400,228.838 222.400 C 228.728 222.400,229.341 223.120,230.200 224.000 M131.400 280.400 C 133.812 282.820,135.876 284.800,135.986 284.800 C 136.096 284.800,134.212 282.820,131.800 280.400 C 129.388 277.980,127.324 276.000,127.214 276.000 C 127.104 276.000,128.988 277.980,131.400 280.400 M145.200 293.800 C 146.617 295.230,147.867 296.400,147.977 296.400 C 148.087 296.400,147.017 295.230,145.600 293.800 C 144.183 292.370,142.933 291.200,142.823 291.200 C 142.713 291.200,143.783 292.370,145.200 293.800 M150.800 299.000 C 151.546 299.770,152.247 300.400,152.357 300.400 C 152.467 300.400,151.946 299.770,151.200 299.000 C 150.454 298.230,149.753 297.600,149.643 297.600 C 149.533 297.600,150.054 298.230,150.800 299.000 M157.400 305.200 C 158.259 306.080,159.052 306.800,159.162 306.800 C 159.272 306.800,158.659 306.080,157.800 305.200 C 156.941 304.320,156.148 303.600,156.038 303.600 C 155.928 303.600,156.541 304.320,157.400 305.200 M163.400 310.800 C 164.259 311.680,165.052 312.400,165.162 312.400 C 165.272 312.400,164.659 311.680,163.800 310.800 C 162.941 309.920,162.148 309.200,162.038 309.200 C 161.928 309.200,162.541 309.920,163.400 310.800 M168.783 315.700 C 170.441 317.466,170.800 317.784,170.800 317.483 C 170.800 317.419,169.945 316.564,168.900 315.583 L 167.000 313.800 168.783 315.700 M175.800 322.400 C 176.659 323.280,177.452 324.000,177.562 324.000 C 177.672 324.000,177.059 323.280,176.200 322.400 C 175.341 321.520,174.548 320.800,174.438 320.800 C 174.328 320.800,174.941 321.520,175.800 322.400 M133.326 321.950 C 127.288 322.279,126.686 322.599,130.400 323.508 C 132.074 323.918,132.230 324.551,130.700 324.727 C 130.095 324.796,129.600 324.661,129.600 324.427 C 129.600 324.192,129.330 324.000,129.000 324.000 C 128.670 324.000,128.400 324.270,128.400 324.600 C 128.400 324.930,128.147 325.200,127.837 325.200 C 127.157 325.200,127.459 326.787,128.147 326.825 C 128.396 326.839,128.223 327.003,127.763 327.189 C 126.544 327.682,125.468 330.203,125.709 332.000 C 125.864 333.151,125.738 333.612,125.154 334.033 C 124.740 334.332,124.400 334.807,124.400 335.088 C 124.400 335.370,124.220 335.600,124.000 335.600 C 123.780 335.600,123.600 335.881,123.600 336.224 C 123.600 336.567,123.428 336.741,123.219 336.612 C 123.009 336.482,122.642 337.101,122.403 337.988 C 122.148 338.937,121.729 339.600,121.385 339.600 C 120.673 339.600,120.601 341.059,121.300 341.319 C 121.587 341.426,121.359 341.681,120.762 341.919 C 119.643 342.365,119.128 343.407,118.384 346.725 C 118.102 347.986,117.601 349.042,117.154 349.322 C 116.739 349.581,116.400 350.019,116.400 350.296 C 116.400 350.573,116.227 350.800,116.015 350.800 C 115.804 350.800,115.442 351.501,115.211 352.359 C 114.980 353.216,114.523 354.021,114.196 354.146 C 113.386 354.457,113.444 355.104,114.300 355.309 C 114.928 355.459,114.918 355.511,114.200 355.816 C 112.626 356.484,111.200 358.669,111.200 360.412 C 111.200 361.862,110.651 363.026,109.340 364.356 C 108.372 365.337,107.043 369.023,107.431 369.650 C 107.550 369.843,107.203 370.171,106.658 370.378 C 106.114 370.585,105.551 371.124,105.407 371.577 C 105.264 372.030,104.978 372.400,104.773 372.400 C 104.568 372.400,104.400 373.120,104.400 374.000 C 104.400 374.971,104.587 375.600,104.876 375.600 C 105.174 375.600,105.123 375.788,104.742 376.100 C 102.755 377.728,101.115 380.422,101.275 381.795 C 101.406 382.910,101.300 383.200,100.766 383.200 C 100.015 383.200,97.600 387.659,97.600 389.045 C 97.600 389.503,97.285 390.248,96.900 390.701 C 96.515 391.155,95.930 391.924,95.600 392.412 C 95.270 392.899,94.780 393.528,94.511 393.809 C 94.242 394.091,93.907 395.043,93.765 395.926 C 93.589 397.028,93.272 397.592,92.754 397.728 C 92.327 397.840,92.000 398.278,92.000 398.739 C 92.000 399.187,91.820 399.664,91.600 399.800 C 91.380 399.936,91.200 400.452,91.200 400.947 C 91.200 401.442,90.936 402.196,90.613 402.624 C 90.290 403.051,90.017 403.940,90.007 404.600 C 89.992 405.500,89.895 405.653,89.615 405.211 C 89.304 404.719,89.202 404.752,88.996 405.411 C 88.860 405.845,88.496 406.740,88.187 407.400 C 87.878 408.060,87.417 409.460,87.163 410.511 C 86.776 412.106,86.575 412.383,85.950 412.184 C 85.209 411.949,84.921 413.186,85.132 415.700 C 85.170 416.154,84.908 416.400,84.387 416.400 C 83.894 416.400,83.396 416.825,83.100 417.500 C 82.561 418.727,81.997 419.245,81.522 418.952 C 81.349 418.845,80.905 418.925,80.537 419.131 C 80.037 419.411,80.494 419.579,82.334 419.792 C 83.691 419.950,84.919 420.269,85.063 420.502 C 85.230 420.773,85.013 420.844,84.463 420.700 C 83.988 420.576,83.600 420.609,83.600 420.773 C 83.600 421.385,92.527 422.283,107.800 423.206 C 111.100 423.406,114.700 423.638,115.800 423.723 C 116.900 423.807,117.408 423.803,116.929 423.714 C 116.450 423.625,115.820 423.259,115.529 422.901 C 115.073 422.340,115.096 422.286,115.700 422.513 C 116.168 422.688,116.400 422.580,116.400 422.187 C 116.400 421.864,116.130 421.600,115.800 421.600 C 115.470 421.600,115.200 421.317,115.200 420.971 C 115.200 420.626,115.470 420.073,115.800 419.743 C 116.130 419.413,116.400 419.336,116.400 419.571 C 116.400 419.807,116.580 420.000,116.800 420.000 C 117.020 420.000,117.200 419.745,117.200 419.433 C 117.200 419.122,117.415 418.795,117.678 418.707 C 117.941 418.620,118.166 417.810,118.178 416.909 C 118.190 416.007,118.290 415.275,118.400 415.282 C 119.118 415.328,119.324 415.139,118.870 414.852 C 118.436 414.577,118.444 414.413,118.918 413.939 C 119.235 413.622,119.620 412.966,119.774 412.481 C 119.930 411.991,120.382 411.600,120.795 411.600 C 121.312 411.600,121.614 411.207,121.792 410.300 C 121.932 409.585,122.194 408.640,122.373 408.200 C 122.553 407.760,122.908 406.884,123.163 406.254 C 123.417 405.624,123.531 404.724,123.416 404.254 C 123.301 403.784,123.311 403.625,123.437 403.900 C 123.563 404.175,123.990 404.400,124.385 404.400 C 125.253 404.400,126.221 401.365,125.453 401.049 C 125.204 400.947,125.360 400.846,125.800 400.825 C 126.365 400.799,126.451 400.693,126.091 400.465 C 125.700 400.217,125.769 399.927,126.391 399.210 C 126.836 398.697,127.200 398.125,127.200 397.939 C 127.200 397.752,127.454 397.600,127.765 397.600 C 128.110 397.600,128.433 396.991,128.595 396.031 C 128.740 395.169,129.129 394.359,129.457 394.233 C 129.847 394.084,129.967 393.725,129.800 393.201 C 129.642 392.704,129.796 392.147,130.202 391.741 C 130.733 391.210,130.757 391.019,130.330 390.748 C 129.911 390.482,129.928 390.411,130.412 390.406 C 130.749 390.403,131.233 389.847,131.489 389.171 C 131.891 388.105,131.875 388.006,131.367 388.428 C 131.044 388.695,130.665 388.798,130.524 388.657 C 130.382 388.516,130.477 388.400,130.733 388.400 C 130.990 388.400,131.200 388.119,131.200 387.776 C 131.200 387.433,131.335 387.235,131.500 387.334 C 131.784 387.506,133.113 386.343,132.900 386.110 C 132.602 385.783,132.871 385.200,133.320 385.200 C 133.961 385.200,134.786 383.013,134.840 381.172 C 134.877 379.901,134.903 379.874,135.200 380.800 C 135.512 381.774,135.521 381.776,135.560 380.887 C 135.582 380.386,135.870 379.871,136.200 379.745 C 136.530 379.618,136.800 379.174,136.800 378.757 C 136.800 378.341,136.966 378.000,137.169 378.000 C 137.372 378.000,137.755 377.325,138.020 376.500 C 138.284 375.675,138.776 374.685,139.113 374.300 C 139.665 373.667,139.530 373.422,138.700 373.553 C 138.138 373.641,138.399 373.002,139.400 371.838 C 139.950 371.199,140.400 370.440,140.400 370.152 C 140.400 369.864,140.760 369.435,141.200 369.200 C 141.791 368.883,142.012 368.332,142.046 367.086 C 142.072 366.159,142.176 365.717,142.277 366.105 C 142.493 366.933,143.200 366.639,143.200 365.720 C 143.200 364.884,144.850 361.600,145.271 361.600 C 145.452 361.600,145.600 361.240,145.600 360.800 C 145.600 360.360,145.947 359.653,146.371 359.229 C 146.795 358.805,147.264 357.647,147.413 356.656 C 147.561 355.665,147.934 354.757,148.241 354.639 C 148.570 354.513,148.819 353.803,148.846 352.913 C 148.872 352.081,148.975 351.715,149.076 352.100 C 149.350 353.149,149.951 352.944,150.247 351.700 C 150.391 351.095,150.798 350.097,151.151 349.483 C 151.716 348.499,151.722 348.321,151.196 347.989 C 150.798 347.737,150.766 347.610,151.100 347.606 C 151.386 347.603,151.620 347.044,151.647 346.300 L 151.695 345.000 152.000 346.200 C 152.168 346.860,152.327 347.079,152.353 346.687 C 152.379 346.296,152.670 345.871,153.000 345.745 C 153.330 345.618,153.600 345.234,153.600 344.892 C 153.600 344.550,154.065 343.477,154.633 342.508 C 155.200 341.539,155.566 340.489,155.445 340.173 C 155.324 339.858,155.444 339.597,155.713 339.594 C 156.021 339.590,155.979 339.445,155.600 339.200 C 155.200 338.942,155.167 338.810,155.500 338.806 C 155.775 338.803,156.013 338.395,156.028 337.900 C 156.055 337.041,156.072 337.037,156.400 337.800 C 156.698 338.494,156.752 338.441,156.803 337.400 C 156.836 336.740,156.954 336.425,157.065 336.700 C 157.444 337.640,157.898 337.201,158.145 335.652 C 158.281 334.801,158.664 333.878,158.996 333.603 C 159.328 333.327,159.600 332.775,159.600 332.375 C 159.600 331.975,159.785 331.533,160.011 331.393 C 160.236 331.254,160.395 330.928,160.363 330.670 C 160.249 329.748,160.411 329.310,161.200 328.400 C 161.640 327.893,162.000 327.254,162.000 326.982 C 162.000 326.709,162.270 326.382,162.600 326.255 C 163.527 325.900,163.313 325.057,162.100 324.285 C 161.009 323.590,161.029 323.585,164.463 323.692 C 166.368 323.751,167.860 323.693,167.778 323.563 C 167.697 323.432,164.969 323.200,161.715 323.047 C 156.297 322.792,148.064 322.322,141.000 321.866 C 139.460 321.766,136.006 321.804,133.326 321.950 M127.876 396.300 C 127.775 396.685,127.693 396.370,127.693 395.600 C 127.693 394.830,127.775 394.515,127.876 394.900 C 127.976 395.285,127.976 395.915,127.876 396.300 M121.600 409.200 C 121.600 409.420,121.433 409.600,121.228 409.600 C 121.023 409.600,120.778 410.005,120.682 410.500 C 120.557 411.151,120.494 411.040,120.454 410.100 C 120.416 409.187,120.579 408.800,121.000 408.800 C 121.330 408.800,121.600 408.980,121.600 409.200 M128.705 424.683 C 129.202 424.779,129.922 424.775,130.305 424.675 C 130.687 424.575,130.280 424.496,129.400 424.501 C 128.520 424.505,128.207 424.587,128.705 424.683 M133.705 425.087 C 134.314 425.179,135.214 425.177,135.705 425.082 C 136.197 424.987,135.700 424.911,134.600 424.914 C 133.500 424.917,133.097 424.995,133.705 425.087 M191.700 428.676 C 192.085 428.776,192.715 428.776,193.100 428.676 C 193.485 428.575,193.170 428.493,192.400 428.493 C 191.630 428.493,191.315 428.575,191.700 428.676 M204.900 429.487 C 205.505 429.578,206.495 429.578,207.100 429.487 C 207.705 429.395,207.210 429.320,206.000 429.320 C 204.790 429.320,204.295 429.395,204.900 429.487 " stroke="none" fill="#73d4ec" fill-rule="evenodd"></path><path id="path4" d="M312.600 42.800 C 313.459 43.680,314.252 44.400,314.362 44.400 C 314.472 44.400,313.859 43.680,313.000 42.800 C 312.141 41.920,311.348 41.200,311.238 41.200 C 311.128 41.200,311.741 41.920,312.600 42.800 M316.800 46.600 C 317.546 47.370,318.247 48.000,318.357 48.000 C 318.467 48.000,317.946 47.370,317.200 46.600 C 316.454 45.830,315.753 45.200,315.643 45.200 C 315.533 45.200,316.054 45.830,316.800 46.600 M306.278 47.805 C 305.912 48.572,305.695 49.200,305.796 49.200 C 306.070 49.200,307.284 46.751,307.101 46.568 C 307.014 46.481,306.644 47.038,306.278 47.805 M301.580 57.239 C 301.120 58.140,300.813 58.946,300.897 59.030 C 300.981 59.114,301.441 58.376,301.919 57.391 C 303.009 55.147,302.715 55.015,301.580 57.239 M298.081 64.609 C 297.602 65.594,297.294 66.400,297.397 66.400 C 297.668 66.400,299.284 63.151,299.103 62.970 C 299.019 62.886,298.559 63.624,298.081 64.609 M296.272 68.219 C 295.332 70.189,295.464 70.524,296.447 68.662 C 296.893 67.816,297.187 67.054,297.101 66.967 C 297.014 66.881,296.641 67.444,296.272 68.219 M327.742 71.000 C 327.741 72.980,327.808 73.840,327.892 72.912 C 327.976 71.984,327.977 70.364,327.895 69.312 C 327.812 68.260,327.743 69.020,327.742 71.000 M293.381 74.037 C 293.029 74.718,292.812 75.345,292.899 75.432 C 292.986 75.519,293.356 74.962,293.722 74.195 C 294.544 72.470,294.259 72.338,293.381 74.037 M289.882 81.411 C 289.292 82.615,288.894 83.600,288.998 83.600 C 289.267 83.600,291.284 79.551,291.105 79.371 C 291.023 79.289,290.473 80.207,289.882 81.411 M167.907 84.690 C 168.626 84.779,169.706 84.777,170.307 84.686 C 170.908 84.595,170.320 84.522,169.000 84.524 C 167.680 84.526,167.188 84.601,167.907 84.690 M287.472 86.219 C 286.532 88.189,286.664 88.524,287.647 86.662 C 288.093 85.816,288.387 85.054,288.301 84.967 C 288.214 84.881,287.841 85.444,287.472 86.219 M184.900 85.876 C 185.285 85.976,185.915 85.976,186.300 85.876 C 186.685 85.775,186.370 85.693,185.600 85.693 C 184.830 85.693,184.515 85.775,184.900 85.876 M190.700 86.282 C 191.195 86.378,192.005 86.378,192.500 86.282 C 192.995 86.187,192.590 86.109,191.600 86.109 C 190.610 86.109,190.205 86.187,190.700 86.282 M196.705 86.683 C 197.202 86.779,197.922 86.775,198.305 86.675 C 198.687 86.575,198.280 86.496,197.400 86.501 C 196.520 86.505,196.207 86.587,196.705 86.683 M202.300 87.082 C 202.795 87.178,203.605 87.178,204.100 87.082 C 204.595 86.987,204.190 86.909,203.200 86.909 C 202.210 86.909,201.805 86.987,202.300 87.082 M207.100 87.482 C 207.595 87.578,208.405 87.578,208.900 87.482 C 209.395 87.387,208.990 87.309,208.000 87.309 C 207.010 87.309,206.605 87.387,207.100 87.482 M211.233 87.747 C 211.325 87.827,213.470 87.988,216.000 88.104 C 219.054 88.244,219.861 88.208,218.400 87.997 C 216.127 87.669,210.939 87.487,211.233 87.747 M222.900 88.687 C 223.505 88.778,224.495 88.778,225.100 88.687 C 225.705 88.595,225.210 88.520,224.000 88.520 C 222.790 88.520,222.295 88.595,222.900 88.687 M285.320 90.585 C 284.730 91.787,283.967 92.846,283.624 92.939 C 283.117 93.076,283.131 93.116,283.694 93.154 C 284.162 93.185,284.784 92.417,285.600 90.800 C 286.266 89.480,286.717 88.400,286.601 88.400 C 286.486 88.400,285.909 89.383,285.320 90.585 M245.905 90.283 C 246.402 90.379,247.122 90.375,247.505 90.275 C 247.887 90.175,247.480 90.096,246.600 90.101 C 245.720 90.105,245.407 90.187,245.905 90.283 M251.905 90.683 C 252.402 90.779,253.122 90.775,253.505 90.675 C 253.887 90.575,253.480 90.496,252.600 90.501 C 251.720 90.505,251.407 90.587,251.905 90.683 M257.500 91.082 C 257.995 91.178,258.805 91.178,259.300 91.082 C 259.795 90.987,259.390 90.909,258.400 90.909 C 257.410 90.909,257.005 90.987,257.500 91.082 M264.400 91.614 C 265.830 91.775,267.900 91.900,269.000 91.892 C 270.889 91.879,270.855 91.862,268.400 91.586 C 266.970 91.425,264.900 91.300,263.800 91.308 C 261.911 91.321,261.945 91.338,264.400 91.614 M275.000 92.413 C 276.540 92.571,278.880 92.694,280.200 92.686 L 282.600 92.671 279.600 92.388 C 277.950 92.232,275.610 92.109,274.400 92.115 C 272.262 92.126,272.279 92.134,275.000 92.413 M141.375 94.900 L 140.200 96.200 141.500 95.025 C 142.712 93.930,142.984 93.600,142.675 93.600 C 142.606 93.600,142.021 94.185,141.375 94.900 M315.800 100.400 C 315.459 101.060,315.269 101.600,315.379 101.600 C 315.489 101.600,315.859 101.060,316.200 100.400 C 316.541 99.740,316.731 99.200,316.621 99.200 C 316.511 99.200,316.141 99.740,315.800 100.400 M133.689 105.300 C 132.819 106.895,131.159 110.000,130.001 112.200 C 128.843 114.400,127.313 117.280,126.601 118.600 C 125.889 119.920,124.316 122.890,123.105 125.200 C 121.894 127.510,119.955 131.200,118.796 133.400 C 81.574 204.051,81.178 204.809,80.555 206.550 C 79.667 209.030,79.933 209.209,80.926 206.800 C 81.424 205.590,84.815 198.930,88.460 192.000 C 92.106 185.070,96.127 177.420,97.397 175.000 C 105.443 159.667,108.477 153.903,111.397 148.400 C 113.207 144.990,115.770 140.130,117.092 137.600 C 124.561 123.314,128.210 116.380,129.197 114.600 C 131.344 110.730,135.607 102.400,135.441 102.400 C 135.348 102.400,134.560 103.705,133.689 105.300 M306.780 118.439 C 306.320 119.340,306.013 120.146,306.097 120.230 C 306.181 120.314,306.641 119.576,307.119 118.591 C 308.209 116.347,307.915 116.215,306.780 118.439 M299.246 132.804 C 298.752 133.682,298.433 134.400,298.535 134.400 C 298.806 134.400,300.459 131.526,300.287 131.354 C 300.208 131.274,299.739 131.927,299.246 132.804 M297.478 136.205 C 297.112 136.972,296.895 137.600,296.996 137.600 C 297.270 137.600,298.484 135.151,298.301 134.968 C 298.214 134.881,297.844 135.438,297.478 136.205 M294.400 142.000 C 293.734 143.320,293.278 144.400,293.388 144.400 C 293.498 144.400,294.134 143.320,294.800 142.000 C 295.466 140.680,295.922 139.600,295.812 139.600 C 295.702 139.600,295.066 140.680,294.400 142.000 M291.246 148.004 C 290.752 148.882,290.433 149.600,290.535 149.600 C 290.806 149.600,292.459 146.726,292.287 146.554 C 292.208 146.474,291.739 147.127,291.246 148.004 M287.038 156.000 C 286.463 157.100,286.066 158.000,286.157 158.000 C 286.360 158.000,287.751 155.651,288.110 154.700 C 288.618 153.358,288.076 154.014,287.038 156.000 M283.262 163.222 C 282.318 164.970,281.632 166.400,281.737 166.400 C 282.004 166.400,285.292 160.359,285.119 160.186 C 285.042 160.108,284.206 161.475,283.262 163.222 M279.256 170.817 C 278.535 172.127,278.031 173.200,278.135 173.200 C 278.404 173.200,280.882 168.749,280.709 168.576 C 280.631 168.497,279.977 169.506,279.256 170.817 M275.075 178.271 C 274.253 179.520,273.909 180.245,274.311 179.881 C 274.999 179.258,277.014 176.000,276.711 176.000 C 276.634 176.000,275.898 177.022,275.075 178.271 M271.978 182.300 L 270.600 183.800 272.100 182.422 C 273.496 181.138,273.784 180.800,273.478 180.800 C 273.412 180.800,272.737 181.475,271.978 182.300 M195.359 190.733 C 195.554 191.049,198.000 190.883,198.000 190.555 C 198.000 190.470,197.359 190.400,196.576 190.400 C 195.793 190.400,195.245 190.550,195.359 190.733 M200.700 191.089 C 201.415 191.178,202.585 191.178,203.300 191.089 C 204.015 191.001,203.430 190.928,202.000 190.928 C 200.570 190.928,199.985 191.001,200.700 191.089 M256.600 191.414 C 255.600 191.896,255.566 191.951,256.400 191.748 C 257.533 191.471,258.807 190.821,258.200 190.830 C 257.980 190.833,257.260 191.096,256.600 191.414 M205.907 191.490 C 206.626 191.579,207.706 191.577,208.307 191.486 C 208.908 191.395,208.320 191.322,207.000 191.324 C 205.680 191.326,205.188 191.401,205.907 191.490 M210.700 191.889 C 211.415 191.978,212.585 191.978,213.300 191.889 C 214.015 191.801,213.430 191.728,212.000 191.728 C 210.570 191.728,209.985 191.801,210.700 191.889 M217.300 192.287 C 217.905 192.378,218.895 192.378,219.500 192.287 C 220.105 192.195,219.610 192.120,218.400 192.120 C 217.190 192.120,216.695 192.195,217.300 192.287 M222.700 192.682 C 223.195 192.778,224.005 192.778,224.500 192.682 C 224.995 192.587,224.590 192.509,223.600 192.509 C 222.610 192.509,222.205 192.587,222.700 192.682 M200.173 195.600 C 201.761 197.140,203.163 198.400,203.288 198.400 C 203.413 198.400,202.215 197.140,200.627 195.600 C 199.039 194.060,197.637 192.800,197.512 192.800 C 197.387 192.800,198.585 194.060,200.173 195.600 M229.300 193.076 C 229.685 193.176,230.315 193.176,230.700 193.076 C 231.085 192.975,230.770 192.893,230.000 192.893 C 229.230 192.893,228.915 192.975,229.300 193.076 M235.105 193.483 C 235.602 193.579,236.322 193.575,236.705 193.475 C 237.087 193.375,236.680 193.296,235.800 193.301 C 234.920 193.305,234.607 193.387,235.105 193.483 M241.907 193.890 C 242.626 193.979,243.706 193.977,244.307 193.886 C 244.908 193.795,244.320 193.722,243.000 193.724 C 241.680 193.726,241.188 193.801,241.907 193.890 M206.383 201.300 C 208.041 203.066,208.400 203.384,208.400 203.083 C 208.400 203.019,207.545 202.164,206.500 201.183 L 204.600 199.400 206.383 201.300 M210.000 204.518 C 210.000 204.619,212.433 206.995,215.406 209.798 C 218.379 212.601,220.698 214.649,220.559 214.348 C 220.297 213.780,210.000 204.194,210.000 204.518 M79.450 210.450 C 79.131 212.046,79.197 219.907,79.540 221.124 C 79.683 221.632,79.800 219.157,79.800 215.624 C 79.800 208.570,79.807 208.667,79.450 210.450 M223.800 217.600 C 224.883 218.700,225.860 219.600,225.970 219.600 C 226.080 219.600,225.283 218.700,224.200 217.600 C 223.117 216.500,222.140 215.600,222.030 215.600 C 221.920 215.600,222.717 216.500,223.800 217.600 M229.200 222.600 C 230.617 224.030,231.867 225.200,231.977 225.200 C 232.087 225.200,231.017 224.030,229.600 222.600 C 228.183 221.170,226.933 220.000,226.823 220.000 C 226.713 220.000,227.783 221.170,229.200 222.600 M236.400 229.400 C 237.595 230.610,238.663 231.600,238.773 231.600 C 238.883 231.600,237.995 230.610,236.800 229.400 C 235.605 228.190,234.537 227.200,234.427 227.200 C 234.317 227.200,235.205 228.190,236.400 229.400 M81.612 227.651 C 81.528 229.442,86.399 236.684,90.052 240.200 L 92.961 243.000 90.177 240.000 C 86.409 235.939,85.349 234.492,83.340 230.668 C 82.396 228.871,81.618 227.513,81.612 227.651 M241.200 233.800 C 242.395 235.010,243.463 236.000,243.573 236.000 C 243.683 236.000,242.795 235.010,241.600 233.800 C 240.405 232.590,239.337 231.600,239.227 231.600 C 239.117 231.600,240.005 232.590,241.200 233.800 M246.000 238.200 C 247.195 239.410,248.263 240.400,248.373 240.400 C 248.483 240.400,247.595 239.410,246.400 238.200 C 245.205 236.990,244.137 236.000,244.027 236.000 C 243.917 236.000,244.805 236.990,246.000 238.200 M253.183 244.900 C 254.164 245.945,255.019 246.800,255.083 246.800 C 255.384 246.800,255.066 246.441,253.300 244.783 L 251.400 243.000 253.183 244.900 M95.000 245.200 C 96.625 246.864,97.294 247.309,96.353 246.100 C 95.539 245.054,93.995 243.600,93.698 243.600 C 93.555 243.600,94.141 244.320,95.000 245.200 M98.922 248.948 C 100.469 250.423,101.319 250.908,100.385 249.781 C 100.102 249.441,99.315 248.788,98.636 248.330 C 97.556 247.602,97.592 247.680,98.922 248.948 M258.400 249.800 C 259.595 251.010,260.663 252.000,260.773 252.000 C 260.883 252.000,259.995 251.010,258.800 249.800 C 257.605 248.590,256.537 247.600,256.427 247.600 C 256.317 247.600,257.205 248.590,258.400 249.800 M101.909 251.804 C 102.411 252.773,104.005 254.273,103.989 253.762 C 103.983 253.563,103.418 252.860,102.735 252.200 C 101.888 251.383,101.625 251.256,101.909 251.804 M264.600 255.600 C 265.683 256.700,266.660 257.600,266.770 257.600 C 266.880 257.600,266.083 256.700,265.000 255.600 C 263.917 254.500,262.940 253.600,262.830 253.600 C 262.720 253.600,263.517 254.500,264.600 255.600 M107.228 257.100 C 108.862 258.805,113.620 263.528,117.800 267.596 C 123.774 273.409,123.176 272.746,115.003 264.496 C 109.284 258.723,104.527 254.000,104.431 254.000 C 104.334 254.000,105.593 255.395,107.228 257.100 M271.000 261.600 C 271.859 262.480,272.652 263.200,272.762 263.200 C 272.872 263.200,272.259 262.480,271.400 261.600 C 270.541 260.720,269.748 260.000,269.638 260.000 C 269.528 260.000,270.141 260.720,271.000 261.600 M276.383 266.500 C 277.364 267.545,278.219 268.400,278.283 268.400 C 278.584 268.400,278.266 268.041,276.500 266.383 L 274.600 264.600 276.383 266.500 M279.200 268.925 C 279.200 268.994,279.785 269.579,280.500 270.225 L 281.800 271.400 280.625 270.100 C 279.530 268.888,279.200 268.616,279.200 268.925 M128.400 277.992 C 129.830 279.356,133.340 282.746,136.200 285.526 C 140.372 289.581,140.095 289.254,134.800 283.870 C 131.170 280.180,127.660 276.789,127.000 276.336 C 126.340 275.883,126.970 276.629,128.400 277.992 M142.800 291.829 C 142.800 291.954,143.038 292.269,143.329 292.529 C 143.620 292.788,145.015 294.080,146.429 295.399 C 148.891 297.696,148.873 297.667,146.010 294.699 C 143.016 291.596,142.800 291.403,142.800 291.829 M295.724 299.000 C 295.726 300.320,295.801 300.812,295.890 300.093 C 295.979 299.374,295.977 298.294,295.886 297.693 C 295.795 297.092,295.722 297.680,295.724 299.000 M152.600 301.200 C 153.906 302.520,155.065 303.600,155.175 303.600 C 155.285 303.600,154.306 302.520,153.000 301.200 C 151.694 299.880,150.535 298.800,150.425 298.800 C 150.315 298.800,151.294 299.880,152.600 301.200 M158.189 306.301 C 159.723 307.895,161.131 309.200,161.318 309.200 C 161.504 309.200,161.406 308.975,161.099 308.700 C 160.793 308.425,159.385 307.120,157.971 305.801 L 155.400 303.401 158.189 306.301 M161.643 309.700 C 161.740 309.755,162.985 310.880,164.410 312.200 L 167.000 314.600 164.613 312.100 C 163.299 310.725,162.054 309.600,161.846 309.600 C 161.637 309.600,161.546 309.645,161.643 309.700 M169.800 317.200 C 171.106 318.520,172.265 319.600,172.375 319.600 C 172.485 319.600,171.506 318.520,170.200 317.200 C 168.894 315.880,167.735 314.800,167.625 314.800 C 167.515 314.800,168.494 315.880,169.800 317.200 M174.381 321.380 L 176.128 323.161 173.364 323.302 L 170.600 323.443 173.785 323.522 L 176.970 323.600 175.000 321.600 C 173.917 320.500,172.941 319.600,172.832 319.600 C 172.723 319.600,173.420 320.401,174.381 321.380 M130.905 320.687 C 131.514 320.779,132.414 320.777,132.905 320.682 C 133.397 320.587,132.900 320.511,131.800 320.514 C 130.700 320.517,130.297 320.595,130.905 320.687 M126.500 321.076 C 126.885 321.176,127.515 321.176,127.900 321.076 C 128.285 320.975,127.970 320.893,127.200 320.893 C 126.430 320.893,126.115 320.975,126.500 321.076 M136.900 321.087 C 137.505 321.178,138.495 321.178,139.100 321.087 C 139.705 320.995,139.210 320.920,138.000 320.920 C 136.790 320.920,136.295 320.995,136.900 321.087 M123.400 321.392 C 123.180 321.463,121.407 322.000,119.459 322.586 C 117.511 323.172,116.002 323.735,116.104 323.837 C 116.206 323.939,116.809 323.820,117.445 323.572 C 118.080 323.324,120.220 322.698,122.200 322.181 C 124.180 321.663,125.350 321.245,124.800 321.251 C 124.250 321.258,123.620 321.321,123.400 321.392 M143.107 321.490 C 143.826 321.579,144.906 321.577,145.507 321.486 C 146.108 321.395,145.520 321.322,144.200 321.324 C 142.880 321.326,142.388 321.401,143.107 321.490 M148.900 321.887 C 149.505 321.978,150.495 321.978,151.100 321.887 C 151.705 321.795,151.210 321.720,150.000 321.720 C 148.790 321.720,148.295 321.795,148.900 321.887 M154.691 322.289 C 155.401 322.377,156.661 322.379,157.491 322.292 C 158.321 322.205,157.740 322.133,156.200 322.131 C 154.660 322.129,153.981 322.200,154.691 322.289 M160.300 322.689 C 161.015 322.778,162.185 322.778,162.900 322.689 C 163.615 322.601,163.030 322.528,161.600 322.528 C 160.170 322.528,159.585 322.601,160.300 322.689 M165.911 323.093 C 166.851 323.178,168.291 323.177,169.111 323.091 C 169.930 323.005,169.160 322.936,167.400 322.937 C 165.640 322.939,164.970 323.009,165.911 323.093 M112.200 325.474 C 105.215 329.053,100.029 334.284,97.300 340.500 C 96.367 342.626,97.197 341.568,98.869 338.500 C 101.710 333.289,106.283 329.026,112.588 325.712 C 114.355 324.783,115.620 324.027,115.400 324.031 C 115.180 324.036,113.740 324.685,112.200 325.474 M279.400 336.000 C 279.059 336.660,278.869 337.200,278.979 337.200 C 279.089 337.200,279.459 336.660,279.800 336.000 C 280.141 335.340,280.331 334.800,280.221 334.800 C 280.111 334.800,279.741 335.340,279.400 336.000 M275.800 342.800 C 275.459 343.460,275.269 344.000,275.379 344.000 C 275.489 344.000,275.859 343.460,276.200 342.800 C 276.541 342.140,276.731 341.600,276.621 341.600 C 276.511 341.600,276.141 342.140,275.800 342.800 M91.575 351.279 C 88.872 356.406,85.909 362.040,84.992 363.800 C 78.555 376.149,74.316 384.161,73.986 384.600 C 73.139 385.726,60.346 411.279,60.534 411.467 C 60.655 411.589,62.622 407.933,64.903 403.344 C 67.185 398.755,70.103 393.020,71.388 390.600 C 72.672 388.180,74.479 384.760,75.404 383.000 C 79.926 374.392,81.203 371.969,82.681 369.200 C 84.731 365.356,88.165 358.846,90.697 354.000 C 91.789 351.910,93.624 348.430,94.775 346.267 C 95.926 344.104,96.783 342.249,96.679 342.146 C 96.576 342.043,94.279 346.152,91.575 351.279 M259.400 374.000 C 259.059 374.660,258.869 375.200,258.979 375.200 C 259.089 375.200,259.459 374.660,259.800 374.000 C 260.141 373.340,260.331 372.800,260.221 372.800 C 260.111 372.800,259.741 373.340,259.400 374.000 M247.400 396.800 C 247.059 397.460,246.869 398.000,246.979 398.000 C 247.089 398.000,247.459 397.460,247.800 396.800 C 248.141 396.140,248.331 395.600,248.221 395.600 C 248.111 395.600,247.741 396.140,247.400 396.800 M243.000 405.200 C 242.659 405.860,242.469 406.400,242.579 406.400 C 242.689 406.400,243.059 405.860,243.400 405.200 C 243.741 404.540,243.931 404.000,243.821 404.000 C 243.711 404.000,243.341 404.540,243.000 405.200 M239.094 412.503 L 238.388 413.800 239.194 412.856 C 239.880 412.052,240.246 411.194,239.900 411.203 C 239.845 411.204,239.482 411.789,239.094 412.503 M58.275 415.794 C 55.798 420.782,55.803 420.816,58.900 420.735 L 61.400 420.670 59.200 420.435 C 56.587 420.156,56.605 420.326,58.730 415.842 C 60.991 411.074,60.638 411.036,58.275 415.794 M234.800 418.200 C 233.828 419.190,233.123 420.000,233.233 420.000 C 233.343 420.000,234.228 419.190,235.200 418.200 C 236.172 417.210,236.877 416.400,236.767 416.400 C 236.657 416.400,235.772 417.210,234.800 418.200 M63.507 421.090 C 64.226 421.179,65.306 421.177,65.907 421.086 C 66.508 420.995,65.920 420.922,64.600 420.924 C 63.280 420.926,62.788 421.001,63.507 421.090 M69.507 421.490 C 70.226 421.579,71.306 421.577,71.907 421.486 C 72.508 421.395,71.920 421.322,70.600 421.324 C 69.280 421.326,68.788 421.401,69.507 421.490 M229.544 422.327 C 228.744 422.917,227.754 423.632,227.344 423.915 C 226.935 424.198,227.369 424.027,228.309 423.536 C 229.250 423.044,230.313 422.318,230.671 421.921 C 231.548 420.952,231.279 421.049,229.544 422.327 M76.100 421.887 C 76.705 421.978,77.695 421.978,78.300 421.887 C 78.905 421.795,78.410 421.720,77.200 421.720 C 75.990 421.720,75.495 421.795,76.100 421.887 M83.200 422.401 C 85.934 422.722,92.252 422.904,91.967 422.653 C 91.875 422.573,89.280 422.414,86.200 422.301 C 82.667 422.171,81.559 422.208,83.200 422.401 M92.433 422.950 C 92.525 423.032,95.300 423.192,98.600 423.304 C 102.466 423.436,103.533 423.401,101.600 423.207 C 98.354 422.880,92.162 422.706,92.433 422.950 M107.300 423.887 C 107.905 423.978,108.895 423.978,109.500 423.887 C 110.105 423.795,109.610 423.720,108.400 423.720 C 107.190 423.720,106.695 423.795,107.300 423.887 M113.305 424.287 C 113.914 424.379,114.814 424.377,115.305 424.282 C 115.797 424.187,115.300 424.111,114.200 424.114 C 113.100 424.117,112.697 424.195,113.305 424.287 M120.700 424.682 C 121.195 424.778,122.005 424.778,122.500 424.682 C 122.995 424.587,122.590 424.509,121.600 424.509 C 120.610 424.509,120.205 424.587,120.700 424.682 M127.500 425.082 C 127.995 425.178,128.805 425.178,129.300 425.082 C 129.795 424.987,129.390 424.909,128.400 424.909 C 127.410 424.909,127.005 424.987,127.500 425.082 M134.500 425.476 C 134.885 425.576,135.515 425.576,135.900 425.476 C 136.285 425.375,135.970 425.293,135.200 425.293 C 134.430 425.293,134.115 425.375,134.500 425.476 M145.891 426.289 C 146.601 426.377,147.861 426.379,148.691 426.292 C 149.521 426.205,148.940 426.133,147.400 426.131 C 145.860 426.129,145.181 426.200,145.891 426.289 M152.291 426.689 C 153.001 426.777,154.261 426.779,155.091 426.692 C 155.921 426.605,155.340 426.533,153.800 426.531 C 152.260 426.529,151.581 426.600,152.291 426.689 M158.700 427.089 C 159.415 427.178,160.585 427.178,161.300 427.089 C 162.015 427.001,161.430 426.928,160.000 426.928 C 158.570 426.928,157.985 427.001,158.700 427.089 M165.507 427.490 C 166.226 427.579,167.306 427.577,167.907 427.486 C 168.508 427.395,167.920 427.322,166.600 427.324 C 165.280 427.326,164.788 427.401,165.507 427.490 M171.700 427.887 C 172.305 427.978,173.295 427.978,173.900 427.887 C 174.505 427.795,174.010 427.720,172.800 427.720 C 171.590 427.720,171.095 427.795,171.700 427.887 M179.305 428.287 C 179.914 428.379,180.814 428.377,181.305 428.282 C 181.797 428.187,181.300 428.111,180.200 428.114 C 179.100 428.117,178.697 428.195,179.305 428.287 M185.905 428.683 C 186.402 428.779,187.122 428.775,187.505 428.675 C 187.887 428.575,187.480 428.496,186.600 428.501 C 185.720 428.505,185.407 428.587,185.905 428.683 M193.300 429.076 C 193.685 429.176,194.315 429.176,194.700 429.076 C 195.085 428.975,194.770 428.893,194.000 428.893 C 193.230 428.893,192.915 428.975,193.300 429.076 " stroke="none" fill="#bfe8f5" fill-rule="evenodd"></path></g></svg>