<?xml version="1.0" standalone="no"?>
<!DOCTYPE svg PUBLIC "-//W3C//DTD SVG 20010904//EN"
 "http://www.w3.org/TR/2001/REC-SVG-20010904/DTD/svg10.dtd">
<svg version="1.0" xmlns="http://www.w3.org/2000/svg"
 width="453.000000pt" height="551.000000pt" viewBox="0 0 453.000000 551.000000"
 preserveAspectRatio="xMidYMid meet">
<metadata>
Created by potrace 1.16, written by Peter Selinger 2001-2019
</metadata>
<g transform="translate(0.000000,551.000000) scale(0.100000,-0.100000)"
fill="#000000" stroke="none">
<path d="M3466 4940 c-27 -56 -45 -104 -40 -111 4 -7 3 -10 -3 -6 -6 4 -14 0
-17 -9 -4 -10 -2 -13 6 -8 8 5 9 -6 6 -40 -3 -25 -3 -46 1 -46 3 0 6 -135 6
-299 0 -165 -3 -297 -6 -295 -3 1 -6 -10 -6 -26 l0 -30 22 38 c89 156 265 518
270 555 18 117 -58 281 -165 357 l-27 19 -47 -99z"/>
<path d="M2592 2974 c36 -38 37 -40 23 -68 -8 -15 -15 -34 -15 -41 0 -6 -9
-22 -20 -35 -11 -13 -20 -29 -20 -36 0 -7 -49 -111 -108 -231 -153 -308 -210
-425 -217 -450 -3 -11 -12 -27 -20 -33 -8 -7 -15 -20 -15 -30 0 -9 -9 -29 -20
-43 -11 -14 -20 -32 -20 -40 0 -8 -8 -25 -18 -38 -11 -13 -22 -36 -25 -51 -4
-15 -13 -33 -21 -41 -19 -19 -25 -53 -9 -50 7 2 12 -2 10 -8 -1 -6 90 -99 203
-206 369 -352 357 -339 402 -429 35 -71 41 -92 42 -153 0 -38 4 -67 7 -63 3 4
136 255 295 557 l289 550 3 75 c4 84 -16 159 -62 226 -14 22 -73 82 -130 134
-57 52 -213 196 -347 319 -134 124 -227 207 -207 185z"/>
</g>
</svg>
